<?xml version="1.0" standalone="no"?>
<!DOCTYPE svg PUBLIC "-//W3C//DTD SVG 1.1//EN" "http://www.w3.org/Graphics/SVG/1.1/DTD/svg11.dtd" >
<!--
2013-9-30: Created.
-->
<svg>
<metadata>
Created by iconfont
</metadata>
<defs>

<font id="iconfont" horiz-adv-x="1024" >
  <font-face
    font-family="iconfont"
    font-weight="500"
    font-stretch="normal"
    units-per-em="1024"
    ascent="896"
    descent="-128"
  />
    <missing-glyph />
    
    <glyph glyph-name="zonghechaxun" unicode="&#59300;" d="M908-60l-320 0c-22.4 0-40 17.6-40 40l0 320c0 22.4 17.6 40 40 40l320 0c22.4 0 40-17.6 40-40l0-320C948-42.4 930.4-60 908-60zM877.6 451.2 780.8 548.8c-23.2-15.2-50.4-24.8-80.8-24.8-79.2 0-144 64.8-144 144s64.8 144 144 144 144-64.8 144-144c0-23.2-5.6-45.6-16-65.6l100.8-100.8c14.4-14.4 14.4-36.8 0-51.2C914.4 436.8 892 436.8 877.6 451.2zM700 740c-40 0-72-32-72-72s32-72 72-72 72 32 72 72S740 740 700 740zM428-60l-320 0c-22.4 0-40 17.6-40 40l0 320c0 22.4 17.6 40 40 40l320 0c22.4 0 40-17.6 40-40l0-320C468-42.4 450.4-60 428-60zM428 420l-320 0c-22.4 0-40 17.6-40 40l0 320c0 22.4 17.6 40 40 40l320 0c22.4 0 40-17.6 40-40l0-320C468 437.6 450.4 420 428 420z"  horiz-adv-x="1024" />

    
    <glyph glyph-name="chaxun" unicode="&#59301;" d="M229.83609 718.808188l461.985567 0 0-57.748052-461.985567 0 0 57.748052ZM228.296527 602.744999l461.985567 0 0-57.748052-461.985567 0 0 57.748052ZM114.341142 835.245585l692.976619 0 0-461.984413 57.748052 0 0 461.984413c0 31.893094-25.854958 57.748052-57.748052 57.748052l-692.976619 0c-31.893094 0-57.748052-25.854958-57.748052-57.748052l0-808.472722c0-31.893094 25.854958-57.748052 57.748052-57.748052l404.236361 0 0 57.748052-404.236361 0L114.341142 835.245585zM229.451488 371.75856799999997l0-57.748052 140.452501 0c0 20.068603 2.939376 39.447694 8.386172 57.748052L229.451488 371.75856799999997zM465.562482 487.254671L228.296527 487.254671l0-57.748052 175.543682 0C420.103216 452.819508 441.148916 472.545087 465.562482 487.254671zM902.807629 22.477563000000032L770.391347 153.32194300000003c30.443618 35.382231 48.851387 81.416668 48.851387 131.75449 0 111.626984-90.492352 202.11818-202.117026 202.11818-111.625829 0-202.11818-90.491197-202.11818-202.11818 0-111.624674 90.492352-202.11818 202.11818-202.11818 40.412086 0 78.049957 11.867225 109.631211 32.298485l135.217063-133.613977c11.275885-11.275885 29.557763-11.275885 40.833647 0C914.082359-7.080199999999991 914.082359 11.200522999999976 902.807629 22.477563000000032zM472.754424 285.07643299999995c0 79.73389 64.638549 144.370129 144.371284 144.370129 79.73158 0 144.368974-64.636239 144.368974-144.370129 0-79.73158-64.637394-144.370129-144.368974-144.370129C537.392973 140.70630400000005 472.754424 205.34485299999994 472.754424 285.07643299999995z"  horiz-adv-x="1045" />

    
    <glyph glyph-name="iconfontzhizuobiaozhunbduan35" unicode="&#59302;" d="M732.397131 647.020392c0-12.216229-9.901511-22.118763-22.116717-22.118763l-398.62586 0c-12.216229 0-22.116717 9.903557-22.116717 22.118763l0 0c0 12.214183 9.901511 22.11467 22.116717 22.11467l398.62586 0C722.49562 669.136086 732.397131 659.234575 732.397131 647.020392L732.397131 647.020392zM732.397131 403.24839c0-12.216229-9.901511-22.118763-22.116717-22.118763l-398.62586 0c-12.216229 0-22.116717 9.903557-22.116717 22.118763l0 0c0 12.214183 9.901511 22.11467 22.116717 22.11467l398.62586 0C722.49562 425.36306 732.397131 415.461549 732.397131 403.24839L732.397131 403.24839zM522.023796 174.87305200000003c0-12.216229-9.901511-22.118763-22.11467-22.118763l-188.254571 0c-12.216229 0-22.116717 9.903557-22.116717 22.118763l0 0c0 12.214183 9.901511 22.11467 22.116717 22.11467l188.254571 0C512.122285 196.98772199999996 522.023796 187.08621200000005 522.023796 174.87305200000003L522.023796 174.87305200000003zM836.266803 895.544629l-648.536676 0c-71.937402 0-130.463354-58.525951-130.463354-130.463354l0-762.109338c0-71.939449 58.525951-130.4654 130.463354-130.4654l355.275539 0c0.473791-0.029676 0.951675-0.050142 1.430582-0.050142 12.447497 0 22.538319 10.090822 22.538319 22.538319 0 12.007475-9.393951 21.818935-21.231557 22.496363-0.00614 0.014326-0.01228 0.027629-0.01842 0.039909l-357.995487 0c-47.109947 0-85.437881 38.327934-85.437881 85.439928l0 762.109338c0 47.109947 38.327934 85.437881 85.437881 85.437881l648.536676 0c47.111994 0 85.439928-38.327934 85.439928-85.437881l0-467.611024c-0.029676-0.471744-0.050142-0.947582-0.050142-1.425466 0-12.447497 10.090822-22.538319 22.538319-22.538319 12.44545 0 22.536272 10.090822 22.536272 22.538319l0 469.036489C966.732204 837.017654 908.206252 895.544629 836.266803 895.544629zM964.788945-91.04329700000005l-83.433224 83.429131c6.541997 9.18622 11.983939 19.088754 16.244986 29.594015 7.091512 17.488303 10.688433 35.964096 10.688433 54.914704s-3.597945 37.428448-10.688433 54.914704c-7.347339 18.113543-18.134009 34.360576-32.060183 48.288796-13.928221 13.926174-30.175253 24.714891-48.288796 32.060183-17.49035 7.091512-35.964096 10.686387-54.914704 10.686387-18.949584 0-37.426401-3.595898-54.912657-10.686387-18.113543-7.345292-34.360576-18.134009-48.290843-32.060183-13.926174-13.928221-24.712845-30.175253-32.058137-48.288796-7.091512-17.486256-10.688433-35.964096-10.688433-54.914704s3.597945-37.426401 10.688433-54.914704c7.345292-18.11559 18.131963-34.360576 32.060183-48.288796 13.928221-13.926174 30.173207-24.712845 48.288796-32.060183 17.488303-7.091512 35.96512-10.686387 54.914704-10.686387 18.947538 0 37.422308 3.595898 54.912657 10.686387 10.262738 4.160763 19.954471 9.451256 28.960589 15.791661l83.523275-83.521229C929.735591-126.09869700000002 975.868281-134.51334399999996 964.788945-91.04329700000005zM844.671217-5.436569999999961c-21.992897-21.992897-51.230802-34.104749-82.334193-34.104749-31.103392 0.002047-60.343343 12.111852-82.332147 34.104749-21.99085 21.99085-34.104749 51.230802-34.104749 82.332147s12.111852 60.33925 34.104749 82.332147c21.99085 21.992897 51.230802 34.104749 82.332147 34.104749 31.103392 0 60.341297-12.111852 82.334193-34.104749 21.99085-21.99085 34.102702-51.230802 34.102702-82.332147S866.662067 16.55427999999995 844.671217-5.436569999999961z"  horiz-adv-x="1024" />

    
    <glyph glyph-name="wendangchaxun" unicode="&#59303;" d="M768 460.8c0 15.36-12.8 25.6-25.6 25.6h-460.8c-12.8 0-25.6-10.24-25.6-25.6s12.8-25.6 25.6-25.6h460.8c15.36 0 25.6 10.24 25.6 25.6zM432.64 332.79999999999995h-145.92c-15.36 0-28.16-10.24-28.16-25.6s12.8-25.6 28.16-25.6h145.92c15.36 0 28.16 10.24 28.16 25.6s-12.8 25.6-28.16 25.6zM432.64 179.20000000000005h-145.92c-15.36 0-28.16-10.24-28.16-25.6s12.8-25.6 28.16-25.6h145.92c15.36 0 28.16 10.24 28.16 25.6s-12.8 25.6-28.16 25.6zM281.6 588.8h460.8c12.8 0 25.6 12.8 25.6 25.6s-12.8 25.6-25.6 25.6h-460.8c-12.8 0-25.6-12.8-25.6-25.6s12.8-25.6 25.6-25.6zM896 844.8h-768c-12.8 0-25.6-12.8-25.6-25.6v-870.4c0-15.36 12.8-25.6 25.6-25.6h384c15.36 0 25.6 10.24 25.6 25.6s-10.24 25.6-25.6 25.6h-358.4v819.2h716.8v-384c0-15.36 10.24-25.6 25.6-25.6s25.6 10.24 25.6 25.6v409.6c0 12.8-10.24 25.6-25.6 25.6zM842.24 89.60000000000002c17.92 25.6 28.16 56.32 28.16 89.6 0 84.48-69.12 153.6-153.6 153.6s-153.6-69.12-153.6-153.6 69.12-153.6 153.6-153.6c33.28 0 64 10.24 89.6 28.16l104.96-104.96c5.12-5.12 12.8-7.68 17.92-7.68s12.8 2.56 17.92 7.68c10.24 10.24 10.24 25.6 0 35.84l-104.96 104.96z m-125.44-12.8c-56.32 0-102.4 46.08-102.4 102.4s46.08 102.4 102.4 102.4 102.4-46.08 102.4-102.4-46.08-102.4-102.4-102.4z"  horiz-adv-x="1024" />

    
    <glyph glyph-name="huishuaichaxun" unicode="&#59304;" d="M576 432.64h215.04v-81.92c0-7.68 7.68-10.24 12.8-7.68l179.2 125.44c5.12 2.56 5.12 10.24 0 15.36l-179.2 125.44c-5.12 2.56-12.8 0-12.8-7.68v-74.24H588.8L826.88 793.6c10.24 30.72 5.12 51.2-17.92 64-23.04 12.8-46.08 5.12-71.68-17.92l-217.6-240.64-215.04 240.64c-23.04 23.04-46.08 30.72-69.12 17.92S204.8 824.32 209.92 793.6l230.4-266.24H125.44c-25.6 0-48.64-23.04-48.64-48.64s23.04-48.64 48.64-48.64H460.8v-184.32H243.2v74.24c0 7.68-7.68 10.24-12.8 7.68l-179.2-125.44c-5.12-2.56-5.12-10.24 0-15.36l179.2-125.44c5.12-2.56 12.8 0 12.8 7.68v81.92H460.8v-197.12c0-46.08 17.92-69.12 58.88-69.12 40.96 0 58.88 23.04 56.32 69.12v197.12h332.8c25.6 0 48.64 23.04 48.64 48.64s-23.04 48.64-48.64 48.64h-332.8v184.32z"  horiz-adv-x="1024" />

    
    <glyph glyph-name="chaxunfuwu" unicode="&#59305;" d="M27.903952 363.19599s-0.999992-0.999992-2.099983-0.999992c-29.099762-25.999788-31.199745-69.699431-6.199949-98.899193l237.298063-271.597782c32.299736-36.399703 78.099362-57.199533 125.898972-57.199533h355.897094l62.399491-62.399491 220.598199 215.398242-158.098709 157.098717C797.997665 309.096432 701.198455 330.996253 613.799169 300.796499l-34.29972-12.499898H363.001216c-37.499694-0.999992-66.599456-32.299736-65.599464-69.699431 3.099975-37.499694 33.299728-66.599456 70.799422-65.599464h127.998955c12.499898-2.099983 21.899821-11.399907 22.899813-22.899813 2.099983-14.599881-8.299932-27.099779-22.899813-29.099763h-127.998955c-65.599464 0-119.699023 50.999584-122.798997 116.599049v2.099982L126.703146 353.896066c-24.899797 29.099762-68.699439 33.299728-98.799194 9.299924zM234.502266 597.09408c-14.599881 43.499645-11.399907 90.199264 8.999926 131.298928 20.499833 41.199664 55.699545 71.899413 99.19919 86.499294s90.199264 11.399907 131.298928-8.999926c41.199664-20.499833 71.899413-55.699545 86.499294-99.19919 14.599881-43.499645 11.399907-90.199264-8.999926-131.298929s-55.699545-71.899413-99.199191-86.499293-90.199264-11.399907-131.298928 8.999926c-41.099664 20.499833-71.899413 55.699545-86.499293 99.19919m-68.199444-22.899813c42.999649-127.798957 181.29852-196.498396 308.997478-153.498747s196.498396 181.29852 153.498746 308.997478-181.198521 196.498396-308.997477 153.498747-196.498396-181.29852-153.498747-308.997478zM866.797103 418.895535c-8.799928-17.799855-30.399752-25.099795-48.199606-16.199868L598.199296 512.194773c-17.799855 8.799928-25.099795 30.399752-16.199867 48.199607 8.799928 17.799855 30.399752 25.099795 48.199606 16.199868l220.398201-109.499106c8.899927-4.499963 15.099877-12.099901 18.099852-20.799831s2.49998-18.499849-1.899985-27.399776z"  horiz-adv-x="1024" />

    
    <glyph glyph-name="wangdianchaxun" unicode="&#59306;" d="M887.466667-59.733333000000016H136.533333c-13.653333 0-23.893333 6.826667-30.72 17.066666-6.826667 10.24-6.826667 23.893333 0 34.133334L215.04 179.20000000000005c10.24 17.066667 30.72 20.48 47.786667 13.653333 17.066667-10.24 20.48-30.72 13.653333-47.786666l-78.506667-136.533334h631.466667L750.933333 145.06666700000005c-10.24 17.066667-3.413333 37.546667 13.653334 47.786666 17.066667 10.24 37.546667 3.413333 47.786666-13.653333l109.226667-187.733333c6.826667-10.24 6.826667-23.893333 0-34.133334-10.24-10.24-20.48-17.066667-34.133333-17.066666zM512 76.79999999999995c-6.826667 0-13.653333 3.413333-20.48 6.826667-10.24 6.826667-266.24 197.973333-266.24 392.533333C228.693333 633.173333 354.986667 759.466667 512 759.466667s286.72-126.293333 286.72-286.72c0-194.56-252.586667-382.293333-266.24-392.533334-6.826667 0-13.653333-3.413333-20.48-3.413333z m0 614.4c-119.466667 0-218.453333-95.573333-218.453333-218.453333 0-119.466667 139.946667-259.413333 215.04-320.853334 58.026667 47.786667 218.453333 187.733333 218.453333 320.853334C730.453333 595.626667 631.466667 691.2 512 691.2zM518.826667 343.03999999999996c-71.68 0-133.12 58.026667-133.12 133.12 0 71.68 58.026667 133.12 133.12 133.12 71.68 0 133.12-58.026667 133.12-133.12-3.413333-75.093333-61.44-133.12-133.12-133.12z m0 228.693333c-54.613333 0-98.986667-44.373333-98.986667-98.986666 0-54.613333 44.373333-98.986667 98.986667-98.986667 54.613333 0 98.986667 44.373333 98.986666 98.986667-3.413333 54.613333-44.373333 98.986667-98.986666 98.986666z"  horiz-adv-x="1024" />

    
    <glyph glyph-name="tiquwangdianchaxun" unicode="&#59307;" d="M817.5 1.3999999999999773H206.2c-48.4 0-85 27.9-85 64.8V384.8c0 21.5 17.5 39 39 39s39-17.5 39-39v-304.9c2-0.3 4.3-0.6 7-0.6h611.4c2.8 0 5.1 0.2 7.1 0.6V384.8c0 21.5 17.5 39 39 39s39-17.5 39-39v-318.5c-0.1-37-36.7-64.9-85.2-64.9zM772 337.70000000000005c-50.7 0-98 18.7-130.1 49.8-32-31.1-79.3-49.8-130-49.8s-98 18.7-130.1 49.8c-32-31.1-79.3-49.8-130-49.8-93.2 0-169.5 62.6-171.1 139.9v0.2c-0.2 3.1-0.2 7 0 13.3 0 1.8 0.3 6.1 0.6 7.8l44.4 214.5c6.3 29.7 32.8 51.3 63 51.3h624c28.3 0 53-18.1 61.4-45.1l63.6-205c0.8-2.5 1.4-4.2 1.8-5.9l2.3-7c0.9-2.8 1.3-5.7 1.3-8.7v-13c0-78.5-76.7-142.3-171.1-142.3zM641.9 464.2c10.7 0 20.5-5.8 25.7-15.2 17.5-32.1 58.5-52.8 104.4-52.8 62.1 0 112.6 37.6 112.6 83.8l-1.4 13-1.3 4.1L818.3 702c-0.7 2.4-3 4.1-5.6 4.1h-624c-2.8 0-5.3-2-5.8-4.7l-43.8-211.8c-0.1-2.8-0.1-4.9-0.1-6.5 0.1-0.6 0.1-1.2 0.2-1.8 0.3-1.7 0.2-1.8 0.1-3.1 1.6-45.6 51.7-82 112.6-82 45.9 0 86.9 20.7 104.4 52.8 10.2 18.8 41.1 18.8 51.3 0 17.5-32.1 58.5-52.8 104.4-52.8s86.9 20.7 104.4 52.8c5 9.4 14.9 15.2 25.5 15.2zM758 150.70000000000005H582.6c-10.8 0-19.5 8.7-19.5 19.5s8.7 19.5 19.5 19.5H758c10.8 0 19.5-8.7 19.5-19.5s-8.7-19.5-19.5-19.5z"  horiz-adv-x="1024" />

    
    <glyph glyph-name="kccx" unicode="&#59308;" d="M140.288 890.88C74.24 877.568 22.528 828.416 7.68 763.904c-10.24-42.496-10.24-717.312 0-759.808 12.8-55.296 44.032-90.624 102.912-117.76l25.6-11.776H883.712l30.72 12.288c40.448 16.384 78.848 54.784 95.232 95.232l12.288 30.72V755.2l-12.288 30.72c-16.384 40.448-54.784 78.848-95.232 95.232L883.712 893.44 522.752 894.464C324.096 894.464 152.064 892.928 140.288 890.88z m413.696-199.168C566.272 683.52 640 629.76 717.312 572.416c152.576-113.664 159.744-121.344 130.56-140.288-12.8-8.192-14.336-8.192-28.672 0l-14.848 8.704v-30.72c0-27.648-1.536-31.744-12.8-39.424-12.288-8.192-13.824-7.68-23.04 0.512-8.192 7.68-10.24 16.896-11.264 57.856l-1.536 48.64-120.32 89.088C569.344 615.424 513.536 655.36 512 655.36c-1.536 0-54.272-36.352-116.736-80.896L281.6 494.08l0.512-115.2c1.024-63.488 2.56-149.504 4.608-192l3.072-76.8 88.064-2.56c74.24-2.048 89.6-4.096 96.768-11.264 7.68-7.168 8.192-11.264 3.072-22.016l-6.144-13.824-96.256 2.048c-136.192 2.048-133.632 0-134.656 143.36-0.512 51.2-2.048 127.488-4.096 169.472L233.472 450.56l-18.944-12.8c-22.528-15.36-30.208-15.872-41.984-3.072-18.944 20.992-11.776 28.16 142.848 142.848C397.312 637.952 471.04 691.712 479.232 696.832c22.528 14.336 47.616 12.288 74.752-5.12zM394.752 437.76v-33.28H323.072V471.04h71.68v-33.28z m81.92 0v-33.28H410.112V471.04h66.56v-33.28z m87.04 0v-33.28H492.032V471.04H563.712v-33.28z m112.128-43.008c81.408-25.6 128-107.52 105.472-187.392-4.608-16.896-8.704-33.28-9.216-36.352-0.512-3.584 18.432-20.48 42.496-38.4 44.032-33.28 53.76-48.128 40.96-64-11.776-13.312-29.184-7.168-73.216 26.112l-43.52 32.768-35.328-17.92c-33.28-17.92-36.352-18.432-78.336-16.384-67.072 3.584-109.568 31.744-137.216 90.624-10.752 23.552-12.288 32.256-10.24 69.12 3.584 62.464 29.696 106.496 79.36 131.072 43.52 22.016 74.24 24.576 118.784 10.752zM394.752 353.28v-35.84H323.072V389.12h71.68v-35.84z m81.92 0v-35.84H410.112V389.12h66.56v-35.84zM394.752 271.36v-35.84H323.072V307.2h71.68v-35.84zM583.68 341.504c-66.048-35.328-79.872-118.272-28.16-169.984 40.96-40.448 98.816-43.52 143.36-7.168 23.04 19.456 38.912 52.736 38.912 83.456 0 77.312-86.016 129.536-154.112 93.696z"  horiz-adv-x="1024" />

    
    <glyph glyph-name="chaxun1" unicode="&#59362;" d="M268 566.5c-16.569 0-30 13.431-30 30 0 16.569 13.431 30 30 30h420c16.569 0 30-13.431 30-30 0-16.569-13.431-30-30-30H268zM268 354c-16.569 0-30 13.431-30 30 0 16.569 13.431 30 30 30h320c16.569 0 30-13.431 30-30 0-16.569-13.431-30-30-30H268zM268 141.5c-16.569 0-30 13.431-30 30 0 16.569 13.431 30 30 30h180c16.569 0 30-13.431 30-30 0-16.569-13.431-30-30-30H268zM770.918 57.693c-11.215 12.195-10.42 31.173 1.775 42.389 12.195 11.215 31.173 10.42 42.389-1.775l103-112c11.215-12.195 10.42-31.173-1.775-42.389-12.195-11.215-31.173-10.42-42.389 1.775l-103 112zM709 25c-87.813 0-159 71.187-159 159s71.187 159 159 159 159-71.187 159-159-71.187-159-159-159z m0 60c54.676 0 99 44.324 99 99s-44.324 99-99 99-99-44.324-99-99 44.324-99 99-99zM687.31 770H188c-16.569 0-30-13.431-30-30v-716c0-16.569 13.431-30 30-30h387c16.569 0 30-13.431 30-30 0-16.569-13.431-30-30-30H188c-49.706 0-90 40.294-90 90V740c0 49.706 40.294 90 90 90h512.175a30 30 0 0 0 21.733-9.32l195.825-205.796a30 30 0 0 0 8.267-20.68v-235.48c0-16.568-13.431-30-30-30-16.569 0-30 13.432-30 30V582.213L687.31 770z"  horiz-adv-x="1024" />

    
    <glyph glyph-name="shaixuan" unicode="&#59298;" d="M855.342766 744.53738c-6.056949 11.851932-18.984377 19.393699-33.219589 19.393699L101.903901 763.931079c-14.360056 0-27.412326-7.704472-33.396621-19.744693-5.988388-12.015661-3.845585-26.157753 5.520737-36.192294l255.896134-274.308483 0-309.339324c0-12.847609 7.895831-24.602328 20.389376-30.328749l189.116195-86.432535c5.154393-2.371 10.771321-3.515057 16.33913-3.515057 6.541997 0 13.090133 1.607614 18.926048 4.797259 10.718109 5.945409 17.427928 16.503882 17.809621 28.037567l12.957103 396.767536 245.078765 274.90507C859.543438 718.683549 861.425298 732.686471 855.342766 744.53738zM520.773827 91.724307l-117.384477 53.647851L403.38935 412.371164l127.858016 0L520.773827 91.724307zM550.774095 479.013981c-1.963725 0.299829-3.761674 1.090844-5.809309 1.090844L383.519814 480.104825 181.938726 696.196395l562.427506 0L550.774095 479.013981zM685.454494 371.991502l273.392624 0 0-59.759035-273.392624 0 0 59.759035ZM685.454494 241.895515l273.392624 0 0-59.759035-273.392624 0 0 59.759035ZM685.454494 122.381537l273.392624 0 0-59.759035-273.392624 0 0 59.759035Z"  horiz-adv-x="1024" />

    
    <glyph glyph-name="filter" unicode="&#59299;" d="M548.68195555-34.050275560000046a27.39768889 27.39768889 0 0 0-27.36696888 27.36810667V461.44853333c0 6.54791111 2.34723555 12.87964445 6.61731555 17.83808l207.65923556 241.5104H172.42453333l190.66652445-242.43086222a27.47847111 27.47847111 0 0 0 5.85386667-16.91761778v-279.48032l82.44110222-82.43541333a27.13486222 27.13486222 0 0 0 7.83587555-19.36952889 27.21109333 27.21109333 0 0 0-8.16128-19.29443556c-5.15640889-5.07904-11.97738667-7.87569778-19.20682667-7.87569777s-14.05724445 2.79096889-19.20568888 7.87569777l-90.41123556 90.41692445a27.21564445 27.21564445 0 0 0-8.01564444 19.35815111V451.97653333L94.57891555 731.25319111a27.39768889 27.39768889 0 0 0 4.57955556 38.43072 27.47847111 27.47847111 0 0 0 16.91648 5.85386667h679.12248889a27.17468445 27.17468445 0 0 0 19.34563555-8.02133334 27.16444445 27.16444445 0 0 0 8.00995556-19.35815111 27.36810667 27.36810667 0 0 0-6.61162666-17.83125333L576.03868445 451.30524444v-457.98286222a27.39086222 27.39086222 0 0 0-27.35559112-27.37379556zM681.47313778 38.838044439999976a27.17582222 27.17582222 0 0 0-19.33994667 8.02702222 27.19857778 27.19857778 0 0 0-7.99857778 19.36384 27.40224 27.40224 0 0 0 27.34421334 27.34421334h211.75978666a27.40224 27.40224 0 0 0 27.33852445-27.39086222 27.40224 27.40224 0 0 0-27.34421333-27.34421334h0.00568888-211.76547555z m0 171.29585778a27.39086222 27.39086222 0 0 0-27.33852445 27.38631111 27.40906667 27.40906667 0 0 0 27.34421334 27.34990222h211.75978666a27.40224 27.40224 0 0 0 27.33852445-27.392 27.40906667 27.40906667 0 0 0-27.34421333-27.34421333h0.00568888-211.76547555z m0 169.32750222c-15.00046222 0.19342222-27.12348445 12.62364445-26.9312 27.71171556a27.19288889 27.19288889 0 0 0 27.01880889 27.01880888h211.67786666c15.08807111 0 27.36241778-12.27434667 27.36241778-27.36810666s-12.27434667-27.36810667-27.36241778-27.36810667H681.47313778z"  horiz-adv-x="1031" />

    
    <glyph glyph-name="yigouxuan" unicode="&#59291;" d="M896 896 128 896C57.344 896 0 838.656 0 768l0-768c0-70.656 57.344-128 128-128l768 0c70.656 0 128 57.344 128 128L1024 768C1024 838.656 966.656 896 896 896zM960 0c0-35.392-28.608-64-64-64L128-64c-35.328 0-64 28.608-64 64L64 768c0 35.328 28.672 64 64 64l768 0c35.392 0 64-28.672 64-64L960 0zM421.568 112.448 149.952 384 240.512 474.56 421.504 293.504 783.552 655.552 874.048 564.992Z"  horiz-adv-x="1024" />

    
    <glyph glyph-name="youxiajiaogouxuan" unicode="&#59575;" d="M256-128h768V640l-768-768z m493.6 108.8L704-64l-45.6 45.6L576 64l45.6 45.6L704 26.4l210.4 210.4 45.6-45.6-210.4-210.4z"  horiz-adv-x="1024" />

    
    <glyph glyph-name="yigouxuan1" unicode="&#59292;" d="M796.912941 598.437647L407.491765 203.294118l-156.611765 172.272941a30.177882 30.177882 0 0 1-44.574118-40.658824L361.411765 161.430588a60.235294 60.235294 0 0 1 85.232941-3.915294l2.409412 2.409412 390.927058 396.348235a30.117647 30.117647 0 1 1-43.068235 42.164706zM813.176471 896H210.823529a210.823529 210.823529 0 0 1-210.823529-210.823529v-602.352942a210.823529 210.823529 0 0 1 210.823529-210.823529h602.352942a210.823529 210.823529 0 0 1 210.823529 210.823529V685.176471a210.823529 210.823529 0 0 1-210.823529 210.823529z m150.588235-813.176471a150.588235 150.588235 0 0 0-150.588235-150.588235H210.823529a150.588235 150.588235 0 0 0-150.588235 150.588235V685.176471a150.588235 150.588235 0 0 0 150.588235 150.588235h602.352942a150.588235 150.588235 0 0 0 150.588235-150.588235z"  horiz-adv-x="1024" />

    
    <glyph glyph-name="in_gouxuan" unicode="&#59293;" d="M256-128h768V640l-768-768z m493.6 108.8L704-64l-45.6 45.6L576 64l45.6 45.6 82.4-83.2 210.4 210.4 45.6-45.6-210.4-210.4z"  horiz-adv-x="1024" />

    
    <glyph glyph-name="liebiaoquerengouxuan_" unicode="&#59294;" d="M98 797.8v-830.1h830.1V797.8H98z m714.2-257.6L465.8 193.8l-31.5-31.5c-17.4-17.4-45.6-17.4-63 0l-31.5 31.5-126 126c-17.4 17.4-17.4 45.6 0 63s45.6 17.4 63 0l126-126 346.4 346.4c17.4 17.4 45.6 17.4 63 0s17.4-45.6 0-63z"  horiz-adv-x="1024" />

    
    <glyph glyph-name="gouxuan-youxiajiaogouxuan" unicode="&#59295;" d="M321.8-32.6H928V573.7zM685.5 51.8l-80.9 80.9c-7.4 7.4-7.4 19.5 0 27 7.4 7.4 19.5 7.4 27 0l80.9-80.9c7.4-7.4 7.4-19.5 0-27-7.5-7.4-19.7-7.4-27 0zM874.2 213.5L712.4 51.8c-7.4-7.4-19.5-7.4-27 0-7.4 7.4-7.4 19.5 0 27l161.7 161.7c7.4 7.4 19.5 7.4 27 0 7.5-7.5 7.5-19.5 0.1-27z"  horiz-adv-x="1024" />

    
    <glyph glyph-name="gouxuan-xuanzhong-yuankuang" unicode="&#59296;" d="M512 832C264.6 832 64 631.4 64 384s200.6-448 448-448 448 200.6 448 448S759.4 832 512 832z m226.3-334.9L466.8 225.6c-6.2-6.2-14.4-9.3-22.6-9.3s-16.4 3.1-22.7 9.3L285.7 361.4c-12.4 12.4-12.4 32.8 0 45.3 12.4 12.4 32.8 12.4 45.3 0l113.2-113.1L693 542.4c12.4 12.4 32.8 12.4 45.3 0 12.4-12.5 12.4-32.8 0-45.3z"  horiz-adv-x="1024" />

    
    <glyph glyph-name="hollow-tick" unicode="&#59297;" d="M512-6c215.391 0 390 174.609 390 390S727.391 774 512 774 122 599.3910000000001 122 384s174.609-390 390-390z m0-90C246.903-96 32 118.90300000000002 32 384S246.903 864 512 864s480-214.903 480-480-214.903-480-480-480z m-67.822 382.898L323.82 407.256c-17.574 17.574-46.066 17.574-63.64 0-17.573-17.573-17.573-46.066 0-63.64l143.47-143.47c22.383-22.382 58.673-22.382 81.057 0L745.74 461.18c17.574 17.574 17.574 46.066 0 63.64-17.574 17.573-46.066 17.573-63.64 0L444.178 286.898z"  horiz-adv-x="1024" />

    
    <glyph glyph-name="xiala" unicode="&#59283;" d="M787.2 515.2c-9.6 9.6-22.4 12.8-35.2 12.8l-480-3.2c-12.8 0-25.6-3.2-35.2-12.8-19.2-19.2-19.2-48 0-67.2l240-240c3.2-3.2 9.6-6.4 12.8-9.6l3.2-3.2c16-6.4 38.4-3.2 51.2 9.6l240 243.2c22.4 22.4 19.2 51.2 3.2 70.4z"  horiz-adv-x="1024" />

    
    <glyph glyph-name="xiala1" unicode="&#59284;" d="M814.592 547.7888l-261.7344-346.624a51.2 51.2 0 0 0-81.7152 0L209.408 547.7376A25.6 25.6 0 0 0 229.8368 588.8H794.112a25.6 25.6 0 0 0 20.48-41.0112z"  horiz-adv-x="1024" />

    
    <glyph glyph-name="xiala2" unicode="&#59285;" d="M531.06688 148.48L191.7952 536.02304h681.3696L531.06688 148.48z m0 0"  horiz-adv-x="1024" />

    
    <glyph glyph-name="xiala3" unicode="&#59286;" d="M316.9 307.1L448.1 159c16-18.8 39.4-29.5 64.1-29.5 24.7 0.1 48 10.9 64 29.8l362.2 408.6c35.5 40.1 23.2 72.4-26.4 72.4H112c-49.8 0-62.2-31.9-26.4-72.3l231.3-260.9z m0 0"  horiz-adv-x="1024" />

    
    <glyph glyph-name="xiala-" unicode="&#59287;" d="M512 896C229.2224 896 0 666.760533 0 384c0-282.7776 229.239467-512 512-512 282.7776 0 512 229.239467 512 512S794.760533 896 512 896z m245.179733-478.1568l-213.333333-213.333333a42.5472 42.5472 0 0 0-30.1568-12.509867c-0.5632 0-1.092267 0.3072-1.672533 0.324267-0.5632-0.034133-1.092267-0.324267-1.672534-0.324267-10.922667 0-21.828267 4.164267-30.173866 12.509867l-213.333334 213.333333c-16.674133 16.657067-16.674133 43.6736 0 60.330667 16.674133 16.657067 43.656533 16.657067 60.330667 0L512 293.341867l184.832 184.832c16.674133 16.657067 43.6736 16.657067 60.330667 0 16.674133-16.657067 16.674133-43.6736 0.017066-60.330667z m0 0"  horiz-adv-x="1024" />

    
    <glyph glyph-name="xiala4" unicode="&#59288;" d="M946.986 523.626L558.08 98.349a61.202 61.202 0 0 0-45.972-20.801 61.202 61.202 0 0 0-45.976 20.801L77.226 523.626c-18.985 20.052-24.852 49.279-15.04 75.093s33.493 43.84 61.014 46.292h777.494c27.627-2.347 51.412-20.265 61.226-46.187 9.92-25.92 4.054-55.038-14.934-75.198z"  horiz-adv-x="1024" />

    
    <glyph glyph-name="zuo" unicode="&#59289;" d="M651.62563145-50.98630659000003L226.34930347 337.92050279a61.20218114 61.20218114 0 0 0-20.80173438 45.97224413A61.20218114 61.20218114 0 0 0 226.34930346 429.86856617L651.62563145 818.773588c20.05275039 18.98558228 49.27921402 24.85232562 75.09324227 15.04045657s43.83969546-33.49334857 46.29221581-61.01448826l0-777.49364709c-2.34705484-27.62660522-20.26546899-51.41176271-46.1867503-61.22541931-25.91949376-9.92090966-55.03870431-4.05416635-75.19870778 14.9332035z"  horiz-adv-x="1024" />

    
    <glyph glyph-name="shang" unicode="&#59290;" d="M77.01369341 244.37436854999999L465.92050279 669.65069653a61.20218114 61.20218114 0 0 0 45.97224413 20.80173438A61.20218114 61.20218114 0 0 0 557.86856617 669.65069654L946.773588 244.37436854999999c18.98558228-20.05275039 24.85232562-49.27921402 15.04045657-75.09324227s-33.49334857-43.83969546-61.01448826-46.29221581l-777.49364709 0c-27.62660522 2.34705484-51.41176271 20.26546899-61.22541931 46.1867503-9.92090966 25.91949376-4.05416635 55.03870431 14.9332035 75.19870778z"  horiz-adv-x="1024" />

    
    <glyph glyph-name="qian" unicode="&#59277;" d="M512 881.991c-278.418 0-504.168-225.75-504.219-504.219 0-278.567 225.75-504.269 504.219-504.269 278.517 0 504.269 225.75 504.269 504.269 0 278.468-225.7 504.219-504.269 504.219zM734.996 384.338c1.704-8.067 2.556-17.238 2.556-27.561 0-12.629-0.852-23.252-2.556-31.871l-165.216 0 0-75.769 165.216 0c1.704-8.018 2.556-17.189 2.556-27.512 0-12.679-0.852-23.252-2.556-31.871l-165.216 0 0-135.1c-6.966-1.103-14.081-2.005-21.548-2.606-7.466-0.601-14.982-0.902-22.399-0.902-7.466 0-14.883 0.3-22.349 0.902-7.417 0.601-14.633 1.452-21.548 2.606l0 135.1-158.351 0c-2.306 6.916-3.457 16.636-3.457 29.265 0 5.212 0.3 10.323 0.852 15.535 0.601 5.162 1.452 10.022 2.606 14.583l158.351 0 0 75.769-158.351 0c-2.306 6.916-3.457 16.636-3.457 29.265 0 5.162 0.3 10.323 0.852 15.535 0.601 5.162 1.452 10.022 2.606 14.633l123.925 0-158.351 278.818c7.466 1.152 15.635 2.005 24.505 2.556 8.969 0.601 17.439 0.902 25.457 0.902 8.018 0 16.335-0.3 24.956-0.852s16.335-1.404 23.252-2.556l141.113-259.927 138.607 259.927c7.417 1.152 15.033 2.005 22.799 2.556 7.667 0.55 15.635 0.852 23.653 0.852s16.035-0.3 24.053-0.852c8.067-0.55 15.535-1.404 22.399-2.556l-155.746-278.818 130.79 0zM496.014 189.805z"  horiz-adv-x="1024" />

    
    <glyph glyph-name="qiandai1" unicode="&#59278;" d="M387.016962 634.845095l242.128573 0c74.925457 0 132.079154 162.481581 132.079154 162.481581 0 48.660256-4.871961 85.47472-88.069825 88.068801-83.172281 2.619664-103.098099-58.158584-162.871461-58.158584-61.266365 0-91.911316 47.780213-167.301354 58.158584-75.365478 10.426467-88.044242-39.408545-88.044242-88.068801C254.937808 797.325653 312.066947 634.845095 387.016962 634.845095zM642.362558 584.618157l-255.345596 0c-282.762015 0-352.203574-555.509956-352.203574-555.509956 0-72.966848 59.137889-146.252968 132.079154-146.252968l695.569876 0c72.942289 0 132.078131 73.28612 132.078131 146.252968C994.541573 29.107177 925.076478 584.618157 642.362558 584.618157zM671.344636 157.687648c17.036002 0 30.842449-13.829983 30.842449-30.867008 0-17.034978-13.805424-30.864962-30.842449-30.864962l-125.201513 0 0-80.97115c0-17.034978-13.805424-30.867008-30.816866-30.867008-17.036002 0-30.840402 13.83203-30.840402 30.867008L484.485855 95.955678l-126.009925 0c-17.034978 0-30.840402 13.829983-30.840402 30.864962 0 17.037025 13.805424 30.867008 30.840402 30.867008l126.009925 0 0 39.161928-126.009925 0c-17.034978 0-30.840402 13.806447-30.840402 30.842449 0 17.036002 13.805424 30.890544 30.840402 30.890544l85.181031 0-87.212294 154.989957c-8.518001 14.784728-3.451612 33.631982 11.283997 42.148959 14.759145 8.519024 33.607422 3.476171 42.125423-11.258415l105.007589-185.880501 5.310959 0 105.007589 185.880501c8.516977 14.734586 27.365254 19.778462 42.100864 11.258415 14.760169-8.516977 19.827581-27.364231 11.308557-42.148959l-87.212294-154.989957 79.967286 0c17.036002 0 30.842449-13.853519 30.842449-30.890544 0-17.034978-13.805424-30.842449-30.842449-30.842449l-125.201513 0 0-39.161928L671.344636 157.687648z"  horiz-adv-x="1024" />

    
    <glyph glyph-name="nb-" unicode="&#59279;" d="M512-28.66C284.46-28.66 99.34 156.46 99.34 384S284.46 796.66 512 796.66 924.66 611.54 924.66 384 739.54-28.66 512-28.66z m0 788.36c-207.16 0-375.7-168.54-375.7-375.7S304.84 8.3 512 8.3 887.7 176.84 887.7 384 719.16 759.7 512 759.7zM513.62 127.93a18.48 18.48 0 0 0-18.48 18.48V422.66a18.48 18.48 0 0 0 37 0v-276.25a18.48 18.48 0 0 0-18.52-18.48zM703.42 294.72H323.81a18.48 18.48 0 0 0 0 37h379.61a18.48 18.48 0 1 0 0-37zM703.42 410.09H323.81a18.48 18.48 0 1 0 0 37h379.61a18.48 18.48 0 1 0 0-37zM506 417.57a18.42 18.42 0 0 0-13.67 6l-127.46 140a18.48 18.48 0 0 0 27.33 24.88l127.46-140A18.48 18.48 0 0 0 506 417.57zM521.24 417.57a18.48 18.48 0 0 0-13.67 30.92l127.43 140a18.48 18.48 0 1 0 27.33-24.88l-127.46-140a18.42 18.42 0 0 0-13.63-6.04z"  horiz-adv-x="1024" />

    
    <glyph glyph-name="qian1" unicode="&#59280;" d="M512 896C229.232 896 0 666.768 0 384s229.232-512 512-512 512 229.232 512 512S794.768 896 512 896z m163.648-518.656v-48.528h-118.304v-43.2h118.304v-48.512h-118.304v-112.992h-97.04v112.992h-116.976v48.512h116.976v43.2h-116.976v48.528H438.4l-113.6 225.984h101.024l43.872-107.68c12.544-33.248 25.168-66.464 39.104-99.696h3.328q19.936 50.848 39.872 99.696l43.872 107.68h97.728L579.2 377.344z"  horiz-adv-x="1024" />

    
    <glyph glyph-name="qian2" unicode="&#59281;" d="M504.954-127.36599999999999c-278.057 0-503.461 225.452-503.461 503.46 0 278.058 225.404 503.46 503.46 503.46 278.01 0 503.462-225.402 503.462-503.46 0-278.008-225.452-503.46-503.461-503.46z m0 943.988c-243.294 0-440.527-197.234-440.527-440.528 0-243.293 197.233-440.48 440.527-440.48 243.294 0 440.48 197.187 440.48 440.48 0 243.294-197.186 440.528-440.48 440.528z m31.467-755.191h-62.934V218.80999999999995H284.691v62.884h188.796v94.399H284.691v62.934h153.598L284.206 656.674l53.964 34.133 156.022-220.313h35.733l139.488 208.531 52.315-35.006-137.163-204.99h140.653v-62.935H542.481l-6.061-9.017v-85.382h188.797v-62.884H536.421v-157.38z"  horiz-adv-x="1024" />

    
    <glyph glyph-name="kabao" unicode="&#59276;" d="M875.6736 651.48416L347.10528 770.89792a97.01376 97.01376 0 0 1-114.80576-70.784l-11.89376-47.616H166.46144A94.94528 94.94528 0 0 1 71.68 557.59872v-467.82976A94.9504 94.9504 0 0 1 166.46144-5.12h696.19712A94.9504 94.9504 0 0 1 957.44 89.76896V557.59872a94.9248 94.9248 0 0 1-81.7664 93.88544zM284.54912 687.03744a42.85952 42.85952 0 0 0 50.688 31.2576l291.3024-65.80736h-350.6176zM166.46144 598.56896h696.19712c1.12128 0 2.22208-0.08192 3.32288-0.16896l0.86016-0.19456a26.80832 26.80832 0 0 1 4.50048-0.5888 41.01632 41.01632 0 0 0 32.256-40.02304v-72.91392H125.53728V557.59872a40.99584 40.99584 0 0 0 40.92416 40.97024zM862.65856 48.7936H166.46144a40.99584 40.99584 0 0 0-40.92416 40.96v340.992h778.04544v-340.992a40.99584 40.99584 0 0 0-40.92416-40.96zM787.0208 115.10272h-167.87456a27.04896 27.04896 0 0 0 0 54.09792h167.87456a27.04896 27.04896 0 0 0 0-54.09792z"  horiz-adv-x="1024" />

    
    <glyph glyph-name="cardb" unicode="&#59267;" d="M827.389622 703.659367 192.189695 703.659367c-71.761394 0-130.145106-55.656601-130.145106-124.065643l0-65.462944 895.488091 0 0 65.462944C957.533704 648.002766 899.151016 703.659367 827.389622 703.659367zM62.04459 125.65714c0-68.411089 58.382689-124.066667 130.145106-124.066667l635.199926 0c71.761394 0 130.144082 55.656601 130.144082 124.066667L957.533704 387.240811 62.04459 387.240811 62.04459 125.65714zM602.391195 192.812633l186.241728 0c18.650779 0 33.769105-15.118326 33.769105-33.769105s-15.118326-33.769105-33.769105-33.769105l-186.241728 0c-18.650779 0-33.769105 15.118326-33.769105 33.769105S583.740416 192.812633 602.391195 192.812633z"  horiz-adv-x="1024" />

    
    <glyph glyph-name="xinyongqia" unicode="&#59268;" d="M512 384m-480 0a480 480 0 1 1 960 0 480 480 0 1 1-960 0ZM224 531.2c0 25.6 19.2 44.8 51.2 44.8h480c25.6 0 51.2-19.2 51.2-44.8v-288c0-25.6-19.2-44.8-51.2-44.8H275.2c-25.6 0-51.2 19.2-51.2 44.8V531.2zM224 505.6h576v-70.4h-576zM633.6 288c0 12.8 12.8 25.6 25.6 25.6h70.4c12.8 0 25.6-12.8 25.6-25.6v-25.6c0-12.8-12.8-25.6-25.6-25.6h-70.4c-12.8 0-25.6 12.8-25.6 25.6v25.6z"  horiz-adv-x="1024" />

    
    <glyph glyph-name="xinyongqiatianjia" unicode="&#59269;" d="M215.943 505.877h-47.906v-40.758c13.12 0 24.064-11.055 24.933-23.842h42.908v44.221c0 11.277-8.658 20.379-19.935 20.379zM168.036 399.431v-40.98h47.906c11.277 0 19.935 8.68 19.935 20.379v45.753h-42.908c0-13.652-11.391-24.93-24.933-25.152zM126.524 424.583H83.368v-45.753c0-11.699 9.213-20.379 20.712-20.379h47.484v40.98c-13.785 0.222-24.619 11.5-25.04 25.152zM83.368 485.498v-44.221h43.577c0.644 12.787 11.388 23.842 24.619 23.842v40.758H104.08c-11.499 0-20.712-9.102-20.712-20.379zM653.092 525.812c0 22.133 4.018 43.577 10.855 63.956H45.54c-22.111 0-40.203-17.759-40.203-40.092v-304.819h927.757v96.256c-24.289-10.411-50.836-16.05-78.922-16.05-110.574 0.001-201.08 89.753-201.08 200.749zM151.564 358.451H104.08c-11.499 0-20.712 8.68-20.712 20.379v45.753h43.155c0.422-13.653 11.255-24.93 25.041-25.152v-40.98z m0 106.668c-13.231 0-23.975-11.055-24.619-23.842H83.368v44.221c0 11.277 9.213 20.379 20.712 20.379h47.484v-40.758z m84.314-86.289c0-11.699-8.658-20.379-19.935-20.379h-47.906v40.98c13.542 0.222 24.933 11.499 24.933 25.152h42.908v-45.753z m0 62.447H192.97c-0.869 12.787-11.813 23.842-24.933 23.842v40.758h47.906c11.277 0 19.935-9.102 19.935-20.379v-44.221zM5.338 67.307c0-22.333 18.092-40.314 40.203-40.314h847.437c22.444 0 40.117 17.982 40.117 40.314v107.09H5.338v-107.09zM854.173 696.436c-71.548 0-132.996-43.999-158.37-106.668-8.125-19.713-12.254-41.402-12.254-63.956 0-93.637 76.321-170.824 170.624-170.824 28.726 0 55.612 7.37 78.922 19.513C987.613 403.116 1025 460.346 1025 525.812c0 94.303-77.168 170.624-170.827 170.624z m78.922-192.734h-54.636v-107.955h-48.35V503.702H727.57v45.531h102.539v107.09h48.35v-107.09H980.443v-45.531h-47.348z"  horiz-adv-x="1024" />

    
    <glyph glyph-name="qia" unicode="&#59270;" d="M512.564 382.703m-448.352 0a448.352 448.352 0 1 1 896.704 0 448.352 448.352 0 1 1-896.704 0ZM792.785 200.56c0-30.952-25.092-56.044-56.044-56.044H288.388c-30.952 0-56.044 25.092-56.044 56.044V480.78c0 30.952 25.092 56.044 56.044 56.044H736.74c30.952 0 56.044-25.092 56.044-56.044v-280.22zM792.785 228.582c0-30.952-25.092-56.044-56.044-56.044H288.388c-30.952 0-56.044 25.092-56.044 56.044v280.22c0 30.952 25.092 56.044 56.044 56.044H736.74c30.952 0 56.044-25.092 56.044-56.044v-280.22zM232.344 480.78h560.44v-84.066h-560.44zM596.63 256.604m-28.022 0a28.022 28.022 0 1 1 56.044 0 28.022 28.022 0 1 1-56.044 0ZM708.719 256.604m-28.022 0a28.022 28.022 0 1 1 56.044 0 28.022 28.022 0 1 1-56.044 0ZM484.542 256.604m-28.022 0a28.022 28.022 0 1 1 56.044 0 28.022 28.022 0 1 1-56.044 0Z"  horiz-adv-x="1024" />

    
    <glyph glyph-name="qiabao" unicode="&#59271;" d="M1023.994 550.789c0 41.411-33.571 74.981-74.981 74.981H196.098c-41.411 0-74.981-33.57-74.981-74.981v-50.136h902.877v50.136zM121.117 410.658V100.9c0-41.411 33.57-74.981 74.981-74.981h752.915c41.41 0 74.981 33.57 74.981 74.981V410.658H121.117zM926 134.749H793v59h133v-59zM116.166 189.351c-36.881 0-66.778 28.297-66.778 63.203V631.76c0 34.905 29.897 63.201 66.778 63.201h670.545c36.88 0 66.779-28.296 66.779-63.201V580.149h49.388V667.1c0 41.411-33.572 74.981-74.982 74.981H74.981C33.57 742.082 0 708.512 0 667.101v-449.889C0 175.8 33.57 142.23 74.981 142.23h131.624v47.121h-90.439z"  horiz-adv-x="1024" />

    
    <glyph glyph-name="qiapian" unicode="&#59272;" d="M975.36 87.04H41.984c-11.776 0-21.504 9.728-21.504 21.504V650.752c0 11.776 9.728 21.504 21.504 21.504h933.376c11.776 0 21.504-9.728 21.504-21.504V108.544c0-11.776-9.728-21.504-21.504-21.504zM20.48 572.416h976.384V379.904H20.48zM79.36 342.528h219.648v-202.752h-219.648zM929.792 255.488H364.544c-10.752 0-19.456 8.704-19.456 19.456 0 10.752 8.704 19.456 19.456 19.456h565.248c10.752 0 19.456-8.704 19.456-19.456-0.512-10.752-9.216-19.456-19.456-19.456zM637.952 186.88h-273.408c-10.752 0-19.456 8.704-19.456 19.456 0 10.752 8.704 19.456 19.456 19.456h273.408c10.752 0 19.456-8.704 19.456-19.456 0-10.752-8.704-19.456-19.456-19.456zM188.928 275.456m-39.936 0a39.936 39.936 0 1 1 79.872 0 39.936 39.936 0 1 1-79.872 0ZM188.928 235.52c-37.888 0-68.608-30.72-68.608-68.608h137.216c0 37.888-30.72 68.608-68.608 68.608z"  horiz-adv-x="1024" />

    
    <glyph glyph-name="yinhangqia" unicode="&#59273;" d="M512-128C229.239467-128 0 101.239467 0 384 0 666.760533 229.239467 896 512 896c282.760533 0 512-229.239467 512-512 0-282.760533-229.239467-512-512-512z m313.821867 716.8H198.178133c-33.8944 0-24.098133-37.444267-24.098133-83.182933v-27.7504h675.84v27.7504c0 45.738667 9.796267 83.182933-24.098133 83.182933zM174.08 440.900267v-218.146134c0-42.734933-9.796267-77.687467 24.098133-77.687466h627.643734c33.8944 0 24.098133 34.952533 24.098133 77.687466v218.112H174.08zM580.266667 269.448533c0-5.461333-3.959467-9.9328-8.8064-9.9328H521.216v-36.283733c0-5.461333-3.925333-9.898667-8.772267-9.898667h-0.8192c-4.846933 0-8.772267 4.437333-8.772266 9.898667v36.283733h-50.312534c-4.846933 0-8.772267 4.437333-8.772266 9.9328v1.092267c0 5.461333 3.925333 9.9328 8.772266 9.9328h50.312534v19.319467h-38.5024c-4.8128 0-8.772267 4.437333-8.772267 9.9328v0.887466c0 5.461333 3.959467 9.9328 8.772267 9.9328h37.9904L460.1856 366.933333a10.513067 10.513067 0 0 0-2.6624 7.0656c0 2.696533 0.955733 5.2224 2.6624 7.099734a8.3968 8.3968 0 0 0 6.314667 2.901333c2.389333 0 4.642133-1.024 6.314666-2.901333l39.253334-43.793067 39.150933 43.656533a8.465067 8.465067 0 0 0 6.314667 2.901334c2.389333 0 4.608-1.024 6.280533-2.901334 1.706667-1.8432 2.628267-4.369067 2.6624-7.031466a10.513067 10.513067 0 0 0-2.6624-7.099734l-41.506133-46.2848h37.341866c4.881067 0 8.8064-4.471467 8.8064-9.966933v-0.853333c0-5.495467-3.925333-9.9328-8.8064-9.9328H521.216v-19.319467h50.312533c4.846933 0 8.772267-4.437333 8.772267-9.9328v-1.092267z"  horiz-adv-x="1024" />

    
    <glyph glyph-name="xinyongqia1" unicode="&#59274;" d="M799.36 344.96c-1.92 0-3.84 0.64-5.12 1.92-3.2 3.2-3.2 7.68 0 10.88l38.4 38.4c3.2 3.2 7.68 3.2 10.88 0s3.2-7.68 0-10.88l-38.4-38.4c-1.92-0.64-3.84-1.92-5.76-1.92zM799.36 307.2c-1.92 0-3.84 0.64-5.12 1.92-3.2 3.2-3.2 7.68 0 10.88l75.52 76.8c3.2 3.2 7.68 3.2 10.88 0s3.2-7.68 0-10.88l-76.16-76.16c-1.28-1.92-3.2-2.56-5.12-2.56zM874.88 269.44c-1.92 0-3.84 0.64-5.12 1.92-3.2 3.2-3.2 7.68 0 10.88L945.28 358.4c3.2 3.2 7.68 3.2 10.88 0s3.2-7.68 0-10.88l-75.52-75.52c-1.92-1.92-3.84-2.56-5.76-2.56zM912.64 269.44c-1.92 0-3.84 0.64-5.12 1.92-3.2 3.2-3.2 7.68 0 10.88l37.76 37.76c3.2 3.2 7.68 3.2 10.88 0s3.2-7.68 0-10.88l-37.76-37.76c-1.92-1.28-3.84-1.92-5.76-1.92zM837.12 269.44c-1.92 0-3.84 0.64-5.12 1.92-3.2 3.2-3.2 7.68 0 10.88l113.28 113.28c3.2 3.2 7.68 3.2 10.88 0s3.2-7.68 0-10.88l-113.28-113.28c-1.92-1.28-3.84-1.92-5.76-1.92zM799.36 383.36c-4.48 0-7.68 3.2-7.68 7.68s3.2 7.68 7.68 7.68h151.04c4.48 0 7.68-3.2 7.68-7.68s-3.2-7.68-7.68-7.68h-151.04zM799.36 269.44c-3.2 0-5.76 1.92-7.04 4.48-1.28 2.56-0.64 6.4 1.92 8.32L907.52 396.8c3.2 3.2 7.68 3.2 10.88 0s3.2-7.68 0-10.88l-101.12-101.12h133.12c4.48 0 7.68-3.2 7.68-7.68s-3.2-7.68-7.68-7.68h-151.04zM89.6 129.28c-14.72 0-28.8 5.76-39.68 16-10.24 10.24-16.64 24.32-16.64 39.68l0.64 396.16c0 30.72 24.96 55.68 55.68 55.68l661.12 0.64c30.72 0 55.68-24.96 55.68-55.68l0.64-396.16c0-14.72-5.76-28.8-16-39.68-10.24-10.24-24.32-16.64-39.68-16.64H89.6c0.64 0 0.64 0 0 0z m661.12 492.8H89.6c-22.4 0-40.96-18.56-40.32-40.96l0.64-396.16c0-10.88 4.48-21.12 12.16-28.8 7.68-7.68 17.92-12.16 28.8-12.16l661.12 0.64c10.88 0 21.12 4.48 28.8 12.16 7.68 7.68 12.16 17.92 12.16 28.8l-0.64 396.16c-1.28 22.4-19.2 40.32-41.6 40.32zM241.28-22.4c-14.72 0-28.8 5.76-39.68 16-10.24 10.24-16.64 24.32-16.64 39.68v103.04c0 4.48 3.2 7.68 7.68 7.68s7.68-3.2 7.68-7.68v-103.04c0-10.88 4.48-21.12 12.16-28.8 7.68-7.68 17.92-12.16 28.8-12.16L902.4-6.4c22.4 0 40.96 18.56 40.32 40.96l-0.64 396.16c0 10.88-4.48 21.12-12.16 28.8-7.68 7.68-17.92 12.16-28.8 12.16h-103.04c-4.48 0-7.68 3.2-7.68 7.68s3.2 7.68 7.68 7.68h103.04c14.72 0 28.8-5.76 39.68-16 10.24-10.24 16.64-24.32 16.64-39.68l0.64-396.16c0-30.72-24.96-55.68-55.68-55.68l-661.12-1.92zM553.6 335.36c-14.72 0-26.88 12.16-26.88 26.88V449.92c0 7.04 2.56 14.08 7.68 19.2 5.12 5.12 12.16 7.68 19.2 7.68H704c7.04 0 14.08-2.56 19.2-7.68 5.12-5.12 7.68-12.16 7.68-19.2v-87.68c0-7.04-2.56-14.08-7.68-19.2-5.12-5.12-12.16-7.68-19.2-7.68H553.6zM704 461.44H553.6c-3.2 0-6.4-1.28-8.32-3.2-1.92-1.92-3.2-5.12-3.2-8.32v-87.68c0-6.4 5.12-12.16 12.16-12.16h150.4c3.2 0 6.4 1.28 8.32 3.2 1.92 1.92 3.2 5.12 3.2 8.32V449.28c0 3.2-1.28 6.4-3.2 8.32-3.2 2.56-6.4 3.84-8.96 3.84zM597.12 335.36c-4.48 0-7.68 3.2-7.68 7.68V469.12c0 4.48 3.2 7.68 7.68 7.68s7.68-3.2 7.68-7.68v-126.08c0-4.48-3.84-7.68-7.68-7.68zM659.84 335.36c-4.48 0-7.68 3.2-7.68 7.68V469.12c0 4.48 3.2 7.68 7.68 7.68s7.68-3.2 7.68-7.68v-126.08c0-4.48-3.2-7.68-7.68-7.68zM533.76 400c-4.48 0-7.68 3.2-7.68 7.68s3.2 7.68 7.68 7.68h63.36c4.48 0 7.68-3.2 7.68-7.68s-3.2-7.68-7.68-7.68h-63.36zM659.84 400c-4.48 0-7.68 3.2-7.68 7.68s3.2 7.68 7.68 7.68h63.36c4.48 0 7.68-3.2 7.68-7.68s-3.2-7.68-7.68-7.68h-63.36zM117.12 270.08c-4.48 0-7.68 3.2-7.68 7.68s3.2 7.68 7.68 7.68h110.08c4.48 0 7.68-3.2 7.68-7.68s-3.2-7.68-7.68-7.68H117.12zM282.88 270.08c-4.48 0-7.68 3.2-7.68 7.68s3.2 7.68 7.68 7.68h110.08c4.48 0 7.68-3.2 7.68-7.68s-3.2-7.68-7.68-7.68H282.88zM448 270.08c-4.48 0-7.68 3.2-7.68 7.68s3.2 7.68 7.68 7.68h110.08c4.48 0 7.68-3.2 7.68-7.68s-3.2-7.68-7.68-7.68H448zM609.92 270.08c-4.48 0-7.68 3.2-7.68 7.68s3.2 7.68 7.68 7.68h113.92c4.48 0 7.68-3.2 7.68-7.68s-3.2-7.68-7.68-7.68H609.92zM117.12 231.68c-4.48 0-7.68 3.2-7.68 7.68s3.2 7.68 7.68 7.68h110.08c4.48 0 7.68-3.2 7.68-7.68s-3.2-7.68-7.68-7.68H117.12zM448 231.68c-4.48 0-7.68 3.2-7.68 7.68s3.2 7.68 7.68 7.68h110.08c4.48 0 7.68-3.2 7.68-7.68s-3.2-7.68-7.68-7.68H448zM117.12 193.28c-4.48 0-7.68 3.2-7.68 7.68s3.2 7.68 7.68 7.68l440.96 0.64c4.48 0 7.68-3.2 7.68-7.68s-3.2-7.68-7.68-7.68l-440.96-0.64zM620.8 514.56c-1.92 0-3.84 0.64-5.12 1.92-3.2 3.2-3.2 7.68 0 10.88l49.28 49.28c3.2 3.2 7.68 3.2 10.88 0s3.2-7.68 0-10.88l-49.28-49.28c-1.92-1.28-3.84-1.92-5.76-1.92zM696.32 514.56c-1.92 0-3.84 0.64-5.12 1.92-3.2 3.2-3.2 7.68 0 10.88l49.28 49.28c3.2 3.2 7.68 3.2 10.88 0s3.2-7.68 0-10.88l-49.28-49.28c-1.92-1.28-3.84-1.92-5.76-1.92zM658.56 514.56c-1.92 0-3.84 0.64-5.12 1.92-3.2 3.2-3.2 7.68 0 10.88l49.28 49.28c3.2 3.2 7.68 3.2 10.88 0s3.2-7.68 0-10.88l-49.28-49.28c-1.92-1.28-3.84-1.92-5.76-1.92zM583.04 514.56c-1.92 0-3.84 0.64-5.12 1.92-3.2 3.2-3.2 7.68 0 10.88l49.28 49.28c3.2 3.2 7.68 3.2 10.88 0s3.2-7.68 0-10.88L588.8 516.48c-1.92-1.28-3.84-1.92-5.76-1.92zM545.28 514.56c-1.92 0-3.84 0.64-5.12 1.92-3.2 3.2-3.2 7.68 0 10.88l49.28 49.28c3.2 3.2 7.68 3.2 10.88 0s3.2-7.68 0-10.88L550.4 516.48c-1.28-1.28-3.2-1.92-5.12-1.92zM176 411.52c-46.08 0-83.2 37.12-83.2 83.2s37.12 83.2 83.2 83.2c22.4 0 42.88-8.96 58.88-24.32 3.2-3.2 3.2-7.68 0-10.88s-7.68-3.2-10.88 0c-12.8 12.8-30.08 19.84-48 19.84-37.76 0-67.84-30.72-67.84-68.48 0-37.76 30.72-67.84 68.48-67.84 16.64 0 42.88 40.32 64 72.32 26.88 40.96 51.84 79.36 76.8 79.36 46.08 0 83.2-37.12 83.2-83.2s-37.12-83.2-83.2-83.2c-22.4 0-42.88 8.96-58.88 24.32-3.2 3.2-3.2 7.68 0 10.88s7.68 3.2 10.88 0c12.8-12.8 30.08-19.84 48-19.84s35.2 7.04 48 19.84 19.84 30.08 19.84 48-7.04 35.2-19.84 48-30.08 19.84-48 19.84c-16.64 0-42.88-40.32-64-72.32-27.52-40.32-52.48-78.72-77.44-78.72zM176 449.28c-24.96 0-45.44 20.48-45.44 45.44 0 12.16 4.48 23.68 13.44 32 8.32 8.32 19.84 13.44 32 13.44 4.48 0 7.68-3.2 7.68-7.68s-3.2-7.68-7.68-7.68c-8.32 0-16-3.2-21.12-8.96-5.76-5.76-8.96-13.44-8.96-21.12 0-16.64 13.44-30.08 30.08-30.08 4.48 0 7.68-3.2 7.68-7.68s-3.2-7.68-7.68-7.68zM316.8 449.28c-4.48 0-7.68 3.2-7.68 7.68s3.2 7.68 7.68 7.68c8.32 0 16 3.2 21.12 8.96 5.76 5.76 8.96 13.44 8.96 21.12 0 8.32-3.2 16-8.96 21.12-5.76 5.76-13.44 8.96-21.12 8.96-4.48 0-7.68 3.2-7.68 7.68s3.2 7.68 7.68 7.68c12.16 0 23.68-4.48 32-13.44 8.32-8.32 13.44-19.84 13.44-32s-4.48-23.68-13.44-32c-8.32-8.32-19.84-13.44-32-13.44zM120.32 328.96c-12.16 0-19.84 9.6-19.84 23.68s8.32 23.68 20.48 23.68c5.12 0 9.6-1.92 12.8-5.76 1.28-1.28 1.28-3.84 0-5.12l-1.92-1.92c-0.64-0.64-1.92-1.28-2.56-1.28-1.28 0-1.92 0.64-2.56 1.28-1.28 1.92-3.2 2.56-5.76 2.56-8.96 0-9.6-9.6-9.6-13.44 0-3.2 0.64-13.44 9.6-13.44 2.56 0 4.48 1.28 7.04 3.2 0.64 0.64 1.92 1.28 2.56 1.28 1.28 0 1.92-0.64 2.56-1.28l1.92-1.92c1.28-1.28 1.28-3.84 0-5.12-4.48-4.48-8.96-6.4-14.72-6.4zM163.2 329.6c-1.28 0-2.56 0.64-3.2 1.92l-9.6 16h-1.92v-14.08c0-1.92-1.92-3.84-3.84-3.84h-2.56c-1.92 0-3.84 1.92-3.84 3.84v38.4c0 1.92 1.92 3.84 3.84 3.84h10.88c14.72 0 16.64-9.6 16.64-14.08 0-5.76-2.56-10.24-7.68-12.8l8.32-13.44c0.64-1.28 0.64-2.56 0-3.84-0.64-1.28-1.92-1.92-3.2-1.92h-3.84z m-11.52 27.52c7.04 0 7.04 3.2 7.04 4.48 0 1.92 0 3.84-7.04 3.84h-3.84v-8.96l3.84 0.64zM179.2 329.6c-1.92 0-3.84 1.92-3.84 3.84v38.4c0 1.92 1.92 3.84 3.84 3.84h21.12c1.92 0 3.84-1.92 3.84-3.84v-2.56c0-1.92-1.92-3.84-3.84-3.84H185.6V358.4h11.52c1.92 0 3.84-1.92 3.84-3.84v-2.56c0-1.92-1.92-3.84-3.84-3.84H185.6v-9.6h15.36c1.92 0 3.84-1.92 3.84-3.84v-2.56c0-1.92-1.92-3.84-3.84-3.84l-21.76 1.28zM212.48 329.6c-1.92 0-3.84 1.92-3.84 3.84v38.4c0 1.92 1.92 3.84 3.84 3.84h8.96c13.44 0 21.12-8.32 21.12-23.04s-7.68-23.04-21.12-23.04h-8.96z m8.96 9.6c2.56 0 10.88 0 10.88 13.44 0 12.8-8.32 12.8-10.88 12.8h-1.92V339.2h1.92zM249.6 329.6c-1.92 0-3.84 1.92-3.84 3.84v38.4c0 1.92 1.92 3.84 3.84 3.84h2.56c1.92 0 3.84-1.92 3.84-3.84v-38.4c0-1.92-1.92-3.84-3.84-3.84H249.6zM275.2 329.6c-1.92 0-3.84 1.92-3.84 3.84v32h-8.32c-1.92 0-3.84 1.92-3.84 3.84v2.56c0 1.92 1.92 3.84 3.84 3.84h26.88c1.92 0 3.84-1.92 3.84-3.84v-2.56c0-1.92-1.92-3.84-3.84-3.84H281.6v-32c0-1.92-1.92-3.84-3.84-3.84H275.2zM330.88 328.96c-12.16 0-19.84 9.6-19.84 23.68s8.32 23.68 20.48 23.68c5.12 0 9.6-1.92 12.8-5.76 1.28-1.28 1.28-3.84 0-5.12l-1.92-1.92c-0.64-0.64-1.92-1.28-2.56-1.28-1.28 0-1.92 0.64-2.56 1.28-1.28 1.92-3.2 2.56-5.76 2.56-8.96 0-9.6-9.6-9.6-13.44 0-3.2 0.64-13.44 9.6-13.44 2.56 0 4.48 1.28 7.04 3.2 0.64 0.64 1.92 1.28 2.56 1.28 1.28 0 1.92-0.64 2.56-1.28l1.92-1.92c1.28-1.28 1.28-3.84 0-5.12-4.48-4.48-9.6-6.4-14.72-6.4zM376.32 329.6c-1.92 0-3.2 1.28-3.84 2.56l-3.84 10.88h-9.6l-3.84-10.88c-0.64-1.28-1.92-2.56-3.84-2.56h-2.56c-1.28 0-2.56 0.64-3.2 1.28-0.64 1.28-0.64 2.56-0.64 3.2l13.44 38.4c0.64 1.28 1.92 2.56 3.84 2.56h2.56c1.92 0 3.2-1.28 3.84-2.56l13.44-38.4c0.64-1.28 0-2.56-0.64-3.2-0.64-1.28-1.92-1.28-3.2-1.92l-1.92 0.64z m-10.24 23.04s-1.28 3.84-1.28 4.48c0-0.64-1.28-4.48-1.28-4.48h2.56zM409.6 329.6c-1.28 0-2.56 0.64-3.2 1.92L396.8 347.52h-1.92v-14.08c0-1.92-1.92-3.84-3.84-3.84h-2.56c-1.92 0-3.84 1.92-3.84 3.84v38.4c0 1.92 1.92 3.84 3.84 3.84h10.88c14.72 0 16.64-9.6 16.64-14.08 0-5.76-2.56-10.24-7.68-12.8l8.32-13.44c0.64-1.28 0.64-2.56 0-3.84-0.64-1.28-1.92-1.92-3.2-1.92H409.6z m-10.88 27.52c7.04 0 7.04 3.2 7.04 4.48 0 1.92 0 3.84-7.04 3.84h-3.84v-8.96l3.84 0.64zM423.04 329.6c-1.92 0-3.84 1.92-3.84 3.84v38.4c0 1.92 1.92 3.84 3.84 3.84h8.96c13.44 0 21.12-8.32 21.12-23.04s-7.68-23.04-21.12-23.04h-8.96z m8.96 9.6c2.56 0 10.88 0 10.88 13.44 0 12.8-8.32 12.8-10.88 12.8h-1.92V339.2h1.92z"  horiz-adv-x="1024" />

    
    <glyph glyph-name="xinyongka" unicode="&#59275;" d="M64.437073 126.451512c0-27.972683 20.779707-50.650537 46.254829-50.650536H913.108293c25.475122 0 46.254829 22.677854 46.254829 50.650536V451.633951H64.437073v-325.182439zM608.405854 223.556683c0 6.993171 5.194927 12.68761 11.588683 12.68761H886.134634c6.393756 0 11.48878-5.694439 11.488781-12.68761v-75.925854c0-6.993171-5.194927-12.68761-11.488781-12.687609H620.094439c-6.393756 0-11.588683 5.694439-11.588683 12.687609v75.925854h-0.099902zM913.308098 692.199024H110.891707c-25.674927 0-46.254829-22.677854-46.254829-50.650536v-101.400976h895.025951V641.64839c-0.099902 27.87278-20.87961 50.550634-46.354731 50.550634z"  horiz-adv-x="1024" />

    
    <glyph glyph-name="duoqudaokechengfuwu" unicode="&#59228;" d="M376.370996 399.642259c-8.485255 0-15.388479-6.901177-15.388479-15.388479 0-8.483208 6.903224-15.386432 15.388479-15.386432 8.483208 0 15.386432 6.903224 15.386432 15.386432C391.757428 392.741082 384.854205 399.642259 376.370996 399.642259zM376.370996 558.142156c-8.486278 0-15.391549-6.904247-15.391549-15.389502 0-8.488325 6.904247-15.392572 15.391549-15.392572 8.486278 0 15.391549 6.904247 15.391549 15.392572C391.762545 551.236885 384.857275 558.142156 376.370996 558.142156zM511.706311 831.978894C264.433578 831.978894 63.981197 631.526513 63.981197 384.254803c0-247.270686 200.452381-447.725114 447.725114-447.725114s447.725114 200.453405 447.725114 447.725114C959.431425 631.526513 758.979044 831.978894 511.706311 831.978894zM376.370996 193.061296c-18.060331 0-32.697703 14.639418-32.697703 32.69668 0 18.060331 14.638395 32.697703 32.697703 32.697703 18.057261 0 32.697703-14.638395 32.697703-32.697703C409.069723 207.700715 394.428258 193.061296 376.370996 193.061296zM376.370996 351.556077c-18.060331 0-32.697703 14.639418-32.697703 32.697703 0 18.058284 14.638395 32.697703 32.697703 32.697703 18.057261 0 32.697703-14.639418 32.697703-32.697703C409.069723 366.195495 394.428258 351.556077 376.370996 351.556077zM376.370996 510.044718c-18.063401 0-32.706913 14.642488-32.706913 32.706913 0 18.061354 14.644535 32.705889 32.706913 32.705889 18.063401 0 32.705889-14.644535 32.705889-32.705889C409.076886 524.687206 394.434397 510.044718 376.370996 510.044718zM699.217962 209.907986 445.845301 209.907986c-8.709359 0-15.779382 7.095605-15.779382 15.84999 0 8.756431 7.070023 15.84999 15.779382 15.84999l253.372661 0c8.714476 0 15.782451-7.092535 15.782451-15.84999C715.000414 217.004615 707.932438 209.907986 699.217962 209.907986zM699.217962 368.404814 445.845301 368.404814c-8.709359 0-15.779382 7.095605-15.779382 15.851013s7.070023 15.847943 15.779382 15.847943l253.372661 0c8.714476 0 15.782451-7.092535 15.782451-15.847943S707.932438 368.404814 699.217962 368.404814zM699.217962 526.900617 445.845301 526.900617c-8.709359 0-15.779382 7.092535-15.779382 15.851013 0 8.755408 7.070023 15.847943 15.779382 15.847943l253.372661 0c8.714476 0 15.782451-7.092535 15.782451-15.847943C715.000414 533.994176 707.932438 526.900617 699.217962 526.900617zM376.370996 241.146455c-8.485255 0-15.388479-6.903224-15.388479-15.388479 0-8.483208 6.903224-15.386432 15.388479-15.386432 8.483208 0 15.386432 6.903224 15.386432 15.386432C391.757428 234.243231 384.854205 241.146455 376.370996 241.146455z"  horiz-adv-x="1024" />

    
    <glyph glyph-name="jiansheyinxing" unicode="&#59230;" d="M475.428571 859.904c0 0 86.930286 67.108571 236.434286 18.285714 0 0 50.358857-18.285714 108.288-70.180571l180.004571-189.147429-96.036571-96.109714-274.651429 279.149714C629.467429 801.938286 583.716571 858.368 475.428571 859.904L475.428571 859.904zM872.082286 489.216l-112.896-109.824c0 0-18.322286-25.929143-33.572571-1.499429L518.144 580.754286c0 0-18.322286 24.393143-32.073143 3.035429l-208.932571-213.577143c0 0-13.750857-21.321143 2.998857-30.500571l204.434286-204.397714c0 0 16.749714-27.465143 32.073143-6.107429l212.004571 213.577143c0 0 6.107429 18.285714 39.68 13.714286l216.576 0c0 0 9.216-219.611429-158.610286-356.937143 0 0-218.112-218.112-517.12-83.858286 0 0-288.365714 100.644571-285.330286 474.404571 0 0 7.68 250.148571 234.971429 382.866286 0 0 166.253714 123.574857 298.934857 32.036571L872.082286 489.216 872.082286 489.216z"  horiz-adv-x="1024" />

    
    <glyph glyph-name="fuwu" unicode="&#59236;" d="M306.820741 704.474074c-51.579259-11.188148-103.632593-63.241481-114.820741-114.820741-21.428148-99.176296 53.475556-186.785185 148.954074-186.785185l152.651852 0 0 6.447407 0 31.478519L493.605926 562.062222l-0.18963 0C489.623704 654.317037 403.816296 725.428148 306.820741 704.474074zM455.68 440.794074l-114.725926 0c-63.905185 0-115.579259 52.242963-114.725926 116.337778 0.853333 61.819259 51.294815 112.260741 113.114074 113.114074 64.094815 0.853333 116.337778-50.820741 116.337778-114.725926L455.68 440.794074zM832.663704 589.653333c-11.188148 51.579259-63.241481 103.632593-114.820741 114.820741-96.900741 20.954074-182.802963-50.157037-186.595556-142.506667l-0.18963 0 0-121.173333 0-31.478519 0-6.447407 152.651852 0C779.093333 402.868148 854.091852 490.477037 832.663704 589.653333zM568.983704 555.52c0 63.905185 52.242963 115.579259 116.337778 114.725926 61.819259-0.853333 112.260741-51.294815 113.114074-113.114074 0.853333-64.094815-50.820741-116.337778-114.725926-116.337778l-114.725926 0L568.983704 555.52zM192 178.157037c11.188148-51.579259 63.241481-103.632593 114.820741-114.820741 96.900741-20.954074 182.802963 50.157037 186.595556 142.506667l0.18963 0L493.605926 327.016296l0 31.478519 0 6.447407-152.651852 0C245.475556 364.942222 170.571852 277.333333 192 178.157037zM455.68 212.29037c0-63.905185-52.242963-115.579259-116.337778-114.725926-61.819259 0.853333-112.260741 51.294815-113.114074 113.114074-0.853333 64.094815 50.820741 116.337778 114.725926 116.337778l114.725926 0L455.68 212.29037zM683.70963 364.942222l-152.651852 0 0-6.447407 0-31.478519 0-121.173333 0.18963 0c3.887407-92.34963 89.694815-163.460741 186.595556-142.506667 51.579259 11.188148 103.632593 63.241481 114.820741 114.820741C854.091852 277.333333 779.093333 364.942222 683.70963 364.942222zM798.435556 210.678519C797.582222 148.859259 747.140741 98.417778 685.321481 97.564444c-64.094815-0.853333-116.337778 50.820741-116.337778 114.725926l0 114.725926 114.725926 0C747.614815 327.016296 799.288889 274.773333 798.435556 210.678519z"  horiz-adv-x="1024" />

    
    <glyph glyph-name="yunongtongqianyuefuwu" unicode="&#59237;" d="M-589.328-64M656.848 332.848c-6.064-10.752-2.432-24.512 8.064-30.736 10.496-6.208 23.936-2.496 30 8.256l80.576 142.992c6.08 10.752 2.464 24.528-8.032 30.736-10.528 6.256-23.968 2.544-30.032-8.256L656.848 332.848 656.848 332.848zM877.888 470.672c-22.736 13.76-54.048 7.664-66.032-12.864l-80.576-142.992 88.816-52.528 80.576 142.992C912.272 425.856 900.672 456.992 877.888 470.672L877.888 470.672zM606.752 93.872c-8.496-14.848-27.504-83.472-17.632-112.416l-8.752-15.344c-3.04-5.296-0.992-12.24 4.544-15.504 1.232-0.704 2.496-1.2 3.808-1.504 4.576-0.912 9.376 0.992 11.68 5.088l9.296 16.272c29.168 6.8 75.664 53.072 85.84 70.896l109.936 195.008-88.912 52.496L606.752 93.872 606.752 93.872zM861.984 748c0 15.52-12.496 28.048-27.968 28.048L189.984 776.048c-15.44 0-28-12.528-28-28.048l0-727.952c0-15.52 12.56-28.016 28-28.016l280.032 0L470.016-64 161.984-64c-30.928 0-55.984 25.104-55.984 56.048l0 784C106 806.976 131.056 832 161.984 832l700 0c30.928 0 56.016-25.024 56.016-55.952l0-252-56.016 0L861.984 748 861.984 748zM316.016 216.048l112 0c7.696 0 13.984-6.288 13.984-14.048l0-27.984c0-7.728-6.288-13.936-13.984-13.936l-112 0c-7.728 0-14.032 6.208-14.032 13.936l0 27.984C301.984 209.76 308.288 216.048 316.016 216.048L316.016 216.048zM301.984 566l0 28c0 7.728 6.304 14.016 14.032 14.016l420.016 0c7.664 0 13.952-6.288 13.952-14.016l0-28c0-7.696-6.288-14-13.952-14L316.016 552C308.288 552.016 301.984 558.304 301.984 566L301.984 566zM301.984 370.016l0 27.968c0 7.776 6.304 14.064 14.032 14.064L512 412.048c7.728 0 13.984-6.288 13.984-14.064l0-27.968c0-7.696-6.256-13.952-13.984-13.952L316.016 356.064C308.288 356.064 301.984 362.32 301.984 370.016L301.984 370.016z"  horiz-adv-x="1024" />

    
    <glyph glyph-name="qiandai" unicode="&#59238;" d="M511.434 523.548c-1.004 0-2.004 0.038-3.005 0.086-1.413-0.038-2.845-0.058-4.297-0.058-55.319 0-131.246 26.787-198.15 69.907-70.907 45.693-113.241 97.553-113.241 138.72 0 18.951 8.862 35.099 24.952 45.47 13.421 8.651 31.413 13.037 53.478 13.037 36.429 0 82.672-11.838 129.871-32.938 18.99 59.076 61.771 98.282 110.395 98.282 48.628 0 91.409-39.204 110.399-98.282 47.199 21.1 93.445 32.938 129.871 32.938 22.065 0 40.057-4.386 53.481-13.037 16.087-10.368 24.949-26.515 24.949-45.47 0-41.167-42.333-93.023-113.238-138.72-66.908-43.12-142.831-69.907-198.144-69.907h-0.006c-1.448 0-2.884 0.019-4.297 0.058-1.010-0.048-2.011-0.086-3.018-0.086zM508.611 568.407c0.297 0 0.595-0.006 0.892-0.016l1.045-0.048c0.591-0.029 1.186-0.029 1.771 0l1.049 0.048c0.54 0.019 1.081 0.019 1.618 0.003 1.231-0.038 2.484-0.061 3.756-0.061 46.473 0 114.734 24.639 173.905 62.771 68.030 43.846 92.726 84.485 92.726 101.102 0 3.731-1.119 5.71-4.437 7.848-3.417 2.203-11.765 5.898-29.236 5.898-35.514 0-85.882-15.013-134.73-40.156-2.974-1.561-6.498-2.477-10.236-2.477-10.992 0-20.134 7.923-22.026 18.37-9.122 51.981-39.931 89.611-73.278 89.611-33.341 0-64.149-37.631-73.257-89.475-1.909-10.583-11.050-18.507-22.041-18.507-3.74 0-7.266 0.918-10.365 2.54-48.725 25.085-99.089 40.098-134.607 40.098-17.468 0-25.812-3.696-29.229-5.898-3.322-2.139-4.44-4.121-4.44-7.848 0-16.618 24.696-57.257 92.729-101.102 59.165-38.133 127.429-62.771 173.905-62.771 1.272 0 2.522 0.019 3.753 0.061l0.732 0.010zM516.549-88.707h-10.227c-101.166 0-196.718 0-267.536 29.085-81.368 33.417-120.92 102.068-120.92 209.87 0 229.48 176.555 416.176 393.568 416.176 217.015 0 393.568-186.696 393.568-416.176 0-107.796-39.555-176.447-120.926-209.867-70.827-29.089-166.373-29.089-267.526-29.089zM508.864-43.95h7.682c96.614 0 187.869 0 250.525 25.735 64.437 26.464 93.174 78.423 93.174 168.464 0 204.803-156.476 371.419-348.811 371.419s-348.811-166.616-348.811-371.419c0-90.047 28.734-142.006 93.167-168.47 62.647-25.729 153.909-25.729 250.532-25.729h2.542zM618.236 268.963h-213.601c-12.359 0-22.378 10.019-22.378 22.378s10.019 22.378 22.378 22.378h213.601c12.359 0 22.378-10.019 22.378-22.378s-10.019-22.378-22.378-22.378zM618.236 169.002h-213.601c-0 0-0 0-0 0-12.359 0-22.378 10.019-22.378 22.378 0 12.359 10.019 22.378 22.378 22.378 0 0 0 0 0 0l213.601-0c12.359 0 22.378-10.019 22.378-22.378s-10.019-22.378-22.378-22.378zM511.434 58.699c-12.359-0-22.378 10.019-22.378 22.378 0 0 0 0 0 0v208.652c0 0 0 0 0 0 0 12.359 10.019 22.378 22.378 22.378 12.359 0 22.378-10.019 22.378-22.378 0-0 0-0 0-0v-208.652c0-12.359-10.019-22.378-22.378-22.378 0 0 0 0 0 0zM512.195 277.687c-0.005-0-0.012-0-0.018-0-5.421 0-10.389 1.934-14.254 5.151l-100.1 82.643c-4.982 4.134-8.131 10.327-8.131 17.255 0 5.43 1.934 10.409 5.152 14.284 4.104 4.945 10.297 8.094 17.225 8.094 5.43 0 10.409-1.934 14.284-5.152l100.1-82.642c4.983-4.134 8.133-10.328 8.133-17.257 0-12.357-10.018-22.375-22.375-22.375-0.006 0-0.011 0-0.017 0zM510.67 277.687c-0.003-0-0.007-0-0.010-0-12.359 0-22.378 10.019-22.378 22.378 0 6.927 3.147 13.119 8.090 17.224l100.173 82.702c3.805 3.088 8.708 4.958 14.047 4.958 12.359 0 22.378-10.019 22.378-22.378 0-6.837-3.066-12.959-7.899-17.063l-100.169-82.698c-3.827-3.187-8.794-5.121-14.213-5.121-0.007 0-0.014 0-0.021 0z"  horiz-adv-x="1024" />

    
    <glyph glyph-name="fuwu-active" unicode="&#59239;" d="M48.873 449.164c-25.6 0-48.873 20.945-48.873 48.873v349.091c0 27.927 20.945 48.873 48.873 48.873h351.418c25.6 0 48.873-20.945 48.873-48.873v-351.418c0-25.6-20.945-48.873-48.873-48.873h-351.418zM623.709 449.164c-25.6 0-48.873 20.945-48.873 48.873v349.091c0 25.6 20.945 48.873 48.873 48.873h351.418c27.927 0 48.873-20.945 48.873-48.873v-351.418c0-25.6-20.945-48.873-48.873-48.873h-351.418zM48.873-128c-27.927 0-48.873 20.945-48.873 48.873v351.418c0 25.6 20.945 48.873 48.873 48.873h351.418c25.6 0 48.873-20.945 48.873-48.873v-351.418c0-25.6-20.945-48.873-48.873-48.873h-351.418zM623.709-128c-25.6 0-48.873 20.945-48.873 48.873v351.418c0 25.6 20.945 48.873 48.873 48.873h351.418c25.6 0 48.873-20.945 48.873-48.873v-351.418c0-25.6-20.945-48.873-48.873-48.873h-351.418z"  horiz-adv-x="1024" />

    
    <glyph glyph-name="yinhanglogo-" unicode="&#59773;" d="M475.81184 855.16288s86.07744 66.42688 234.07616 18.0992c0 0 49.81248-18.0992 107.22816-69.45792l178.17088-187.25888-95.09888-95.14496-271.87712 276.36224c0-0.00512-45.29664 55.8848-152.4992 57.40032z m392.69376-366.98624l-111.77472-108.73344s-18.16064-25.66656-33.26464-1.536l-205.35808 200.90368s-18.16064 24.1408-31.76448 2.98496l-206.88384-211.44064s-13.57824-21.14048 3.00032-30.18752l202.3936-202.35776s16.57856-27.17696 31.73376-6.05696l209.88416 211.42016s6.0672 18.15552 39.29088 13.5936h214.43072s9.09312-217.472-157.04064-353.35168c0 0-215.9104-215.9872-511.9488-83.05664 0 0-285.46048 99.67104-282.46528 469.65248 0 0 7.5776 247.66976 232.64768 379.05408 0 0 164.59264 122.34752 295.95136 31.73376l311.168-312.62208z"  horiz-adv-x="1024" />

    
    <glyph glyph-name="fuwu1" unicode="&#59240;" d="M250.034 342.34c-1.093 5.1-2.46 10.022-1.591 15.177 3.459 20.521 24.691 31.188 43.015 21.052 17.752-9.82 35.455-19.808 52.564-30.689q36.854-23.438 72.769-48.343c35.435-24.573 52.686-59.006 52.919-101.97 0.175-32.323 0.085-64.649-0.036-96.972-0.013-3.512 0.817-5.041 4.5-6.081a39.008 39.008 0 0 0 28.858-38.107c-0.008-12.636 1.359-25.368-0.842-37.9-3.181-18.114-19.155-31.985-37.535-32.095q-66.479-0.4-132.961 0a38.639 38.639 0 0 0-38.063 34.945 173.928 173.928 0 0 0 0.334 41.877c1.874 13.259 9.6 22.864 21.523 28.783 3.067 1.523 3.083 2.972 2.8 5.964-0.9 9.489-5.548 15.367-13.779 20.512-35.682 22.3-68.9 47.9-98.537 77.9-22.34 22.614-42.023 47.288-57 75.456-6.774 12.741-9.5 26.911-13.227 40.669-13.5 49.772-20.722 100.347-18.626 152.047a366.666 366.666 0 0 0 4.159 42.226c1.877 11.913 11.286 20.549 23.342 21.884 11.428 1.265 22.171-5.28 26.611-16.879 11.228-29.33 22.3-58.72 34.824-87.53 11.209-25.775 22.7-51.412 38-75.117 1.439-2.229 3.082-4.328 4.673-6.456 0.155-0.205 0.607-0.178 1.306-0.353zM430.075 6.4c11.637-0.04 23.275-0.219 34.91-0.073 7.993 0.1 15.806 6.32 17.128 14.126 2.2 13 1.507 26.194 0.54 39.211-0.7 9.45-6.209 14.238-15.788 15.769-12.19 1.949-24.521 0.554-36.79 0.726-32.146 0.037-64.292 0.232-96.436 0.035-13.035-0.08-20.546-8.3-20.519-21.248 0.021-9.994-0.1-19.989 0-29.981 0.1-9.757 8.794-18.657 18.515-18.672 32.816-0.057 65.628 0.055 98.44 0.107z m19.685 148.575c0 14.329 0.087 28.658-0.017 42.987-0.26 35.806-14.425 64.785-44.124 84.967-35.912 24.4-71.657 49.135-109.766 70.132-4.807 2.648-9.416 5.671-14.3 8.15-5.736 2.91-12.05-0.147-13.207-6.111-0.707-3.643 1.187-6.337 3.256-9.059a1095.118 1095.118 0 0 1 82.021-96.1c1.431-1.49 3.684-3.086 1.995-5.5-1.888-2.7-4.171-0.943-6.161 0.148-22.626 12.409-44.915 25.384-65.988 40.322-19.893 14.1-39.2 28.938-53.323 49.238-14.7 21.124-25.559 44.35-36.079 67.72-14.745 32.756-27.787 66.2-40.263 99.878-1.295 3.5-2.513 7.341-7.2 6.975-5.006-0.39-5.566-4.562-6.093-8.432-1.64-12.047-2.894-24.131-3.391-36.288-2.017-49.348 4.833-97.632 17.647-145.159 3.581-13.284 6.127-26.987 12.746-39.25 11.854-21.961 26.911-41.64 43.848-59.894 30.106-32.447 64.831-59.272 101.829-83.307 6.546-4.252 15.062-7.136 19.131-13.075 4.189-6.116 4.278-15.153 5.7-23 0.625-3.436 2.1-4.118 5.285-4.108q50.984 0.16 101.967-0.034c3.955-0.02 4.6 1.278 4.568 4.818-0.17 17.993-0.081 35.988-0.081 53.982zM779.06 341.08a86.858 86.858 0 0 1 10.183 14.495c17.989 30.062 31.593 62.219 44.75 94.556 8.39 20.62 16.027 41.546 24.216 62.25a25.712 25.712 0 0 0 24.555 16.471 26 26 0 0 0 23.953-17.374c2.264-6.642 2.587-13.715 3.366-20.65a421.421 421.421 0 0 0-0.054-91.274A550.437 550.437 0 0 0 883.293 278.5c-4.848-14.162-14.173-26.319-22.935-38.47C830.17 198.169 791.889 164.776 750 135.229c-10.059-7.1-20.35-13.882-30.76-20.453-3.634-2.294-6.088-4.663-6.532-9.157-0.357-3.612-2.635-7.345-2.033-10.655 0.65-3.574 5.624-3.793 8.449-5.919 10.665-8.024 16.749-18.557 16.866-31.887 0.113-12.8 1.408-25.7-0.772-38.407a38.917 38.917 0 0 0-37.814-32.36q-66.232-0.362-132.467 0c-21.078 0.13-38.4 17.6-38.69 38.681-0.177 12.637-1.392 25.392 0.674 37.913 2.684 16.267 12.568 26.9 28.316 31.546 3.88 1.144 4.325 2.915 4.317 6.222-0.08 32.159 0.013 64.318-0.066 96.477-0.071 28.6 8.092 54.412 25.719 77.072a115.75 115.75 0 0 0 26.926 25.127c40.6 27.292 81.133 54.672 124 78.383 17.425 9.638 37.329 2.808 43.372-15.153 2.078-6.172 2.058-9.559-0.445-21.579zM670.075 6.4c8.637-0.042 17.274-0.116 25.911-0.119 11.735 0 20 8.151 20.127 19.976 0.1 9.966 0.07 19.935 0.007 29.9-0.065 10.226-5.315 16.985-15.283 19.118-10.163 2.175-20.5 0.654-30.762 0.88-3 0.04-6 0.115-8.993 0.116-30.657 0.009-61.317-0.211-91.971 0.091-16.726 0.165-23.96-10.831-23.118-22.883 0.66-9.45 0.035-18.986 0.13-28.482 0.1-9.77 8.768-18.693 18.489-18.708 35.154-0.052 70.309 0.059 105.463 0.111z m-90.194 148.816h-0.387c0-18.328 0.057-36.656-0.058-54.982-0.018-2.916 0.568-4.042 3.809-4.031q51.733 0.179 103.467-0.005c3.1-0.011 3.927 1.26 4.435 3.893 1.227 6.366 2.812 12.664 4 19.037a9.92 9.92 0 0 0 5.064 7.33q26.515 16.021 51.367 34.542c34.892 26.022 66.9 55.023 92.423 90.574 10.477 14.594 20.449 29.463 25.122 47.288 4.384 16.725 9.178 33.343 12.709 50.278 10.268 49.255 14.06 98.841 7.185 148.921-0.585 4.261 0 9.853-6.129 10.562-5.872 0.68-6.478-4.618-7.967-8.555-16.707-44.166-34.193-87.975-54.891-130.493-16.054-32.979-38.53-59.943-68.685-80.863a767.875 767.875 0 0 0-69.612-43c-2.378-1.3-5.276-4.724-7.864-1.4-2.621 3.369 1.5 5.326 3.339 7.247a1093.682 1093.682 0 0 1 80.6 94.691c3.934 5.163 4.286 9.322 1.01 13.06-3.237 3.694-7.553 3.961-13.125 0.889-43.054-23.736-83.98-50.872-124.27-78.915-25.653-17.856-39.586-43.327-41.366-74.608-0.975-17.1-0.176-34.303-0.176-51.46zM725.893 559.829c-1.921-36.009-13.334-69.534-29.732-101.47-25.177-49.032-59.99-89.821-105.63-121.044a187.187 187.187 0 0 0-48.095-23.87c-24.871-8.062-48.928-5.124-72.446 5.247-31.3 13.8-57.492 34.666-80.758 59.338-37.881 40.17-65.087 86.5-79.452 140.043-7 26.082-9.626 52.4-2.813 78.951 11.05 43.059 38.693 69.652 81.572 80.038 30.472 7.381 60.181 2.488 89.136-8.307a200.358 200.358 0 0 0 33.632-16.243 4.838 4.838 0 0 1 5.844 0.043c23.09 14.184 47.8 24.315 74.9 27.046 47.946 4.831 88.366-8.793 116.018-50.509 13.781-20.787 18.094-44.414 17.824-69.263zM650.138 653.3c-1.579 0.49-3.181 0.918-4.734 1.481-16.63 6.023-33.821 7.192-51.184 5.141-25.418-3-48.63-12.419-69.834-26.462-7.184-4.758-12.7-4.629-19.965-0.2-31.549 19.222-65.262 31.131-102.9 25.921-30.642-4.242-54.22-19.525-68.286-47.664-11.575-23.156-12.726-47.835-7.657-72.641 12.587-61.6 43.345-113.245 87.993-156.972 19.058-18.664 40.441-34.058 64.69-45.339-3.211-2.94-7.975-2.5-11.761-5.212 2.733-1.277 5.087-2.423 7.477-3.487 22.189-9.887 44.839-12.208 68.106-4.078 27.909 9.753 51.854 26.085 73.508 45.713a325.192 325.192 0 0 1 36.749 39.279c28.01 35.428 48.324 74.526 58.814 118.586 4.214 17.7 6.47 35.583 3.748 53.669-2.931 19.475-9.636 37.452-22.5 52.879-11.483 13.77-25.755 23.322-42.268 29.823-2.482 0.977-2.939 0.132-2.221-2.306 0.787-2.691 2.257-5.213 2.225-8.131zM259.643 780.314c7.754-0.349 13.716-3.727 17.519-10.543q7.165-12.84 14.1-25.811a12.64 12.64 0 0 1 5.464-5.506c8.077-4.274 16-8.833 24.1-13.076 7.543-3.955 12.191-9.785 12.241-18.489s-4.535-14.582-12.033-18.625c-9.352-5.042-20.176-8.712-27.413-15.933-7.112-7.1-10.588-17.865-15.547-27.082-4.037-7.5-9.992-12-18.7-11.9-8.487 0.1-14.242 4.615-18.193 11.923-5.054 9.347-8.691 20.187-15.9 27.436-7.085 7.121-17.836 10.633-27.06 15.576-7.508 4.024-12.061 9.927-12.017 18.633 0.043 8.488 4.5 14.326 11.817 18.254 8.2 4.4 16.312 8.959 24.541 13.3a12.609 12.609 0 0 1 5.438 5.512q6.929 12.969 14.1 25.808c3.811 6.809 9.78 10.184 17.543 10.523z m-0.03-20.05c-4.739-8.683-9.536-16.687-13.546-25.067A30.079 30.079 0 0 0 231 720.221c-8.315-3.92-16.212-8.727-24.854-13.459 9.905-5.418 18.987-10.656 28.33-15.379a21.416 21.416 0 0 0 9.85-9.977c4.765-9.317 9.987-18.4 15.3-28.1 4.506 8.233 9.17 15.756 12.834 23.737a32.459 32.459 0 0 0 16.686 16.757c8.031 3.725 15.61 8.424 23.942 13-9.893 5.411-18.975 10.652-28.319 15.371a21.409 21.409 0 0 0-9.844 9.982c-4.767 9.315-9.987 18.4-15.312 28.111zM449.76 154.975c0-17.994-0.09-35.99 0.077-53.982 0.033-3.541-0.613-4.839-4.568-4.818q-50.983 0.264-101.967 0.034c-3.188-0.01-4.66 0.672-5.285 4.108-1.427 7.842-1.516 16.88-5.7 23-4.068 5.939-12.585 8.823-19.131 13.075-37 24.034-71.722 50.86-101.829 83.307-16.937 18.253-31.994 37.932-43.848 59.894-6.62 12.264-9.165 25.967-12.746 39.25-12.82 47.523-19.669 95.806-17.653 145.157 0.5 12.157 1.751 24.241 3.391 36.288 0.527 3.87 1.087 8.042 6.093 8.432 4.691 0.366 5.91-3.48 7.2-6.975 12.476-33.674 25.519-67.122 40.263-99.878 10.52-23.37 21.38-46.6 36.079-67.72 14.126-20.3 33.43-35.137 53.323-49.238 21.073-14.938 43.362-27.914 65.988-40.322 1.99-1.091 4.274-2.85 6.161-0.148 1.689 2.417-0.564 4.014-1.995 5.5a1095.118 1095.118 0 0 0-82.021 96.1c-2.069 2.722-3.963 5.416-3.256 9.059 1.157 5.965 7.471 9.021 13.207 6.111 4.888-2.48 9.5-5.5 14.3-8.15 38.108-21 73.853-45.727 109.766-70.132 29.7-20.182 43.864-49.161 44.124-84.967 0.114-14.326 0.027-28.66 0.027-42.985zM430.075 6.4c-32.812-0.049-65.624-0.161-98.435-0.108-9.721 0.016-18.417 8.915-18.515 18.672-0.1 9.993 0.016 19.988 0 29.981-0.028 12.951 7.484 21.169 20.519 21.248 32.144 0.2 64.291 0 96.437-0.035q-0.005-34.881-0.006-69.758zM430.075 6.4v69.759c12.268-0.172 24.6 1.222 36.789-0.726 9.578-1.531 15.085-6.32 15.788-15.769 0.967-13.017 1.662-26.215-0.54-39.211-1.322-7.806-9.135-14.025-17.128-14.126-11.634-0.15-23.272 0.029-34.909 0.073zM579.881 155.216c0 17.157-0.8 34.36 0.174 51.462 1.781 31.281 15.713 56.752 41.366 74.608 40.29 28.044 81.216 55.179 124.27 78.915 5.572 3.072 9.888 2.8 13.125-0.889 3.276-3.738 2.924-7.9-1.01-13.06a1093.682 1093.682 0 0 0-80.6-94.691c-1.843-1.921-5.96-3.878-3.339-7.247 2.588-3.327 5.485 0.1 7.864 1.4a767.875 767.875 0 0 1 69.612 43c30.156 20.921 52.631 47.884 68.685 80.863 20.7 42.518 38.184 86.327 54.891 130.493 1.489 3.937 2.1 9.235 7.967 8.555 6.124-0.709 5.544-6.3 6.129-10.562 6.875-50.08 3.083-99.666-7.185-148.921-3.53-16.935-8.325-33.553-12.709-50.278-4.672-17.825-14.645-32.695-25.122-47.288-25.519-35.553-57.528-64.554-92.421-90.576q-24.838-18.523-51.363-34.543a9.92 9.92 0 0 1-5.064-7.33c-1.191-6.372-2.776-12.67-4-19.037-0.507-2.633-1.331-3.9-4.435-3.893q-51.733 0.189-103.467 0.005c-3.242-0.011-3.828 1.115-3.809 4.031 0.115 18.327 0.058 36.655 0.058 54.982zM670.075 6.4c-35.154-0.049-70.309-0.159-105.463-0.107-9.721 0.014-18.391 8.938-18.489 18.708-0.095 9.5 0.53 19.031-0.13 28.482-0.842 12.052 6.392 23.047 23.118 22.883 30.654-0.3 61.314-0.083 91.971-0.091 3 0 6-0.075 8.993-0.115v-69.76zM670.075 6.4v69.759c10.259-0.227 20.6 1.294 30.762-0.881 9.968-2.133 15.218-8.892 15.283-19.118 0.063-9.967 0.1-19.936-0.007-29.9-0.124-11.825-8.392-19.98-20.127-19.976-8.636-0.004-17.274 0.07-25.911 0.116zM478.259 336.563c-24.249 11.281-45.632 26.675-64.69 45.339-44.648 43.726-75.406 95.369-87.993 156.972-5.068 24.806-3.918 49.484 7.657 72.641 14.066 28.139 37.644 43.422 68.286 47.664 37.64 5.21 71.353-6.7 102.9-25.921 7.266-4.427 12.78-4.555 19.965 0.2 21.2 14.043 44.417 23.46 69.834 26.462 17.362 2.051 34.554 0.882 51.184-5.141 1.553-0.563 3.155-0.99 4.734-1.481l1-1.063c8.546-26.865 13.314-54.153 11.138-82.556a222.948 222.948 0 0 0-9.556-50.077c-5.955-18.948-14.9-36.511-25.136-53.484-11.848-19.648-25.094-38.319-40.578-55.2-10.87-11.847-22.236-23.3-34.952-33.349-17.538-13.854-36.118-25.84-56.645-34.82-4.808-2.1-10.131-3.2-14.349-6.609z m-59.2 306.719a72.487 72.487 0 0 1-28.119-5.76c-13.962-5.951-25-15.069-31-29.423-2.811-6.728-1.041-12.249 4.563-14.681 5.48-2.378 10.511-0.006 13.559 6.477a28.906 28.906 0 0 0 4.292 7.272c11.724 13.082 26.5 17.646 43.608 15.382 6.585-0.872 11.5 2.185 12.6 8.274 1 5.547-2.747 10.254-9.093 11.488a44.151 44.151 0 0 1-10.408 0.972z m-72.84-85.992c0.245-2.226 0.521-4.858 0.827-7.487 0.772-6.617 5.24-10.349 11.436-9.57a9.79 9.79 0 0 1 8.347 11.545c-0.835 5.06-0.183 9.9 0.649 14.8 0.983 5.8-1.854 10.452-7.183 11.82-5.467 1.4-10.478-1.61-12.146-7.425-1.239-4.319-1.559-8.789-1.928-13.683zM478.259 336.563l2.8-0.417c14.253-6.515 29.043-9.06 44.6-6.138 17.454 3.277 33.289 10.6 47.925 20.282 61.633 40.77 102.993 96.809 124.69 167.351 7.638 24.833 10.909 50.1 3.768 75.646-7.693 27.52-24.2 47.713-50.907 58.951l-1 1.063c0.033 2.918-1.434 5.441-2.226 8.132-0.718 2.438-0.26 3.283 2.221 2.306 16.513-6.5 30.784-16.053 42.268-29.823 12.865-15.428 19.57-33.4 22.5-52.879 2.722-18.086 0.466-35.971-3.748-53.669-10.49-44.059-30.8-83.158-58.814-118.586a325.192 325.192 0 0 0-36.747-39.282c-21.654-19.629-45.6-35.96-73.508-45.713-23.267-8.131-45.917-5.809-68.106 4.078-2.39 1.065-4.744 2.21-7.477 3.487 3.786 2.712 8.55 2.271 11.761 5.211zM259.613 760.264c5.325-9.711 10.545-18.8 15.312-28.113a21.409 21.409 0 0 1 9.844-9.982c9.344-4.719 18.426-9.96 28.319-15.371-8.332-4.578-15.912-9.277-23.942-13a32.459 32.459 0 0 1-16.679-16.751c-3.664-7.981-8.328-15.5-12.834-23.737-5.318 9.7-10.54 18.781-15.3 28.1a21.416 21.416 0 0 1-9.85 9.977c-9.343 4.723-18.425 9.961-28.33 15.379 8.642 4.732 16.539 9.539 24.854 13.459a30.079 30.079 0 0 1 15.061 14.975c4.009 8.378 8.807 16.381 13.545 25.064zM651.14 652.237c26.71-11.238 43.214-31.43 50.907-58.951 7.141-25.548 3.87-50.813-3.768-75.646-21.7-70.542-63.057-126.581-124.69-167.351-14.636-9.682-30.471-17-47.925-20.282-15.56-2.921-30.35-0.377-44.6 6.138 4.218 3.409 9.541 4.5 14.349 6.609 20.528 8.98 39.108 20.966 56.645 34.82 12.716 10.045 24.082 21.5 34.952 33.349 15.485 16.876 28.73 35.548 40.578 55.2 10.235 16.973 19.181 34.536 25.136 53.484a222.948 222.948 0 0 1 9.556 50.077c2.174 28.4-2.594 55.688-11.14 82.553zM419.061 643.283a44.151 44.151 0 0 0 10.411-0.972c6.346-1.234 10.1-5.941 9.093-11.488-1.1-6.089-6.014-9.145-12.6-8.274-17.106 2.264-31.884-2.3-43.608-15.382a28.906 28.906 0 0 1-4.292-7.272c-3.048-6.483-8.079-8.854-13.559-6.477-5.6 2.432-7.374 7.953-4.563 14.681 6 14.355 17.036 23.473 31 29.423a72.487 72.487 0 0 0 28.118 5.761zM346.221 557.29c0.37 4.893 0.69 9.363 1.93 13.685 1.669 5.815 6.68 8.828 12.146 7.425 5.329-1.368 8.166-6.023 7.183-11.82-0.832-4.906-1.484-9.743-0.649-14.8a9.79 9.79 0 0 0-8.347-11.545c-6.2-0.779-10.663 2.954-11.436 9.57-0.307 2.627-0.582 5.26-0.827 7.485z"  horiz-adv-x="1024" />

    
    <glyph glyph-name="zhongguojiansheyinhang" unicode="&#59243;" d="M368.64 609.28s40.96 30.72 112.64 7.68c0 0 23.04-7.68 51.2-33.28l84.48-89.6-46.08-46.08-130.56 133.12c0 2.56-20.48 28.16-71.68 28.16z m186.88-174.08l-53.76-51.2s-7.68-12.8-15.36 0l-99.84 97.28s-7.68 12.8-15.36 2.56l-99.84-102.4s-7.68-10.24 2.56-15.36l97.28-97.28s7.68-12.8 15.36-2.56l99.84 102.4s2.56 7.68 17.92 7.68h102.4s5.12-104.96-74.24-168.96c0 0-102.4-102.4-245.76-40.96 0 0-138.24 48.64-135.68 225.28 0 0 2.56 117.76 112.64 181.76 0 0 79.36 58.88 140.8 15.36l151.04-153.6zM1904.64 527.36c7.68-2.56 17.92-7.68 25.6-10.24-2.56-5.12-2.56-10.24-5.12-15.36H1968.64v-17.92c-23.04 0-46.08 7.68-61.44-5.12 0-2.56-2.56-5.12-2.56-5.12v-2.56h61.44v-17.92h-35.84v-15.36c12.8 0 25.6-2.56 38.4-2.56 0-7.68 0-15.36-2.56-17.92-10.24 2.56-33.28 5.12-38.4-5.12 2.56-7.68-2.56-23.04 2.56-33.28 12.8 7.68 23.04 12.8 35.84 20.48v-23.04c0-2.56-2.56-5.12-2.56-7.68-12.8-5.12-51.2-33.28-66.56-23.04-7.68 2.56-10.24 12.8-15.36 17.92 5.12 2.56 10.24 5.12 15.36 5.12v46.08c-7.68 0-20.48-2.56-25.6 2.56v15.36c7.68 0 17.92 2.56 25.6 2.56v15.36c-12.8 2.56-17.92 0-28.16 0-5.12 5.12-10.24 12.8-15.36 17.92 5.12 7.68 15.36 10.24 20.48 15.36 15.36 10.24 23.04 23.04 30.72 43.52z m296.96-2.56c7.68-2.56 17.92-10.24 20.48-17.92-10.24-20.48-38.4-61.44-64-61.44-2.56 5.12-7.68 12.8-10.24 17.92l5.12 5.12c20.48 17.92 38.4 30.72 48.64 56.32z m-1159.68-5.12c43.52 0 89.6-2.56 133.12-2.56 17.92-2.56 48.64 5.12 56.32-7.68 12.8-15.36 2.56-104.96 5.12-135.68 2.56-12.8 2.56-30.72-5.12-35.84-74.24 0-148.48 2.56-220.16 2.56 0 10.24-5.12 79.36-2.56 130.56 0 12.8-2.56 25.6 0 33.28 2.56 7.68 10.24 12.8 12.8 15.36h20.48z m-209.92 0h20.48c0-7.68 2.56-12.8 2.56-20.48 33.28-5.12 58.88 2.56 89.6-5.12 5.12-17.92 7.68-133.12 0-130.56h-87.04v-20.48H819.2c-2.56 2.56 0 0 0 2.56v17.92h-92.16c0 33.28-2.56 122.88 2.56 128 28.16 15.36 61.44 2.56 87.04 7.68 2.56 5.12 2.56 12.8 5.12 20.48h10.24zM1530.88 460.8h-15.36v-30.72c-17.92 0-48.64 5.12-61.44-2.56v-7.68c20.48 0 46.08 5.12 64-2.56v-17.92H1459.2c0-2.56-2.56-2.56-2.56-5.12h2.56c17.92-7.68 46.08 5.12 58.88-5.12 2.56-5.12 0-12.8 0-17.92h-61.44v-7.68h74.24v-15.36l-5.12-5.12c-43.52 10.24-104.96-2.56-145.92 0-20.48 0-33.28 10.24-48.64 12.8-10.24-7.68-20.48-12.8-38.4-12.8v25.6c7.68 2.56 12.8 2.56 17.92 7.68-7.68 10.24-12.8 25.6-12.8 40.96h17.92c2.56-7.68 5.12-20.48 12.8-23.04 5.12 12.8 7.68 30.72 2.56 40.96h-35.84v2.56 17.92c17.92 5.12 35.84 17.92 35.84 38.4h-7.68c-7.68-2.56-23.04-2.56-33.28 2.56 0 5.12 2.56 12.8 2.56 17.92H1364.48c0-28.16-10.24-38.4-17.92-53.76h12.8v-53.76c-2.56-7.68-12.8-25.6-10.24-30.72 2.56-12.8 56.32-15.36 71.68-10.24v7.68h-53.76v17.92c17.92 0 35.84 2.56 53.76 2.56v5.12h-48.64v5.12c2.56 7.68-2.56 17.92 7.68 15.36 10.24 2.56 30.72 0 40.96 2.56v5.12l-2.56 2.56c-15.36-2.56-23.04 0-43.52 0v17.92h2.56c15.36 0 28.16 2.56 43.52 2.56v7.68h-51.2v20.48c15.36 0 43.52-5.12 51.2 5.12-2.56 2.56 0 2.56-2.56 2.56-12.8 5.12-33.28-2.56-43.52 2.56v17.92c15.36 0 33.28-2.56 46.08 2.56v7.68h35.84c2.56-7.68 2.56-7.68 10.24-10.24 15.36 2.56 43.52 5.12 51.2-12.8 0-5.12 2.56-10.24 2.56-17.92 7.68 0 12.8 0 15.36-2.56-5.12-2.56-5.12-7.68-5.12-12.8z m286.72 5.12v-17.92c-12.8 0-25.6-2.56-35.84 0-5.12 0-7.68 5.12-12.8 5.12-2.56 5.12-7.68 12.8-7.68 17.92 0 7.68 2.56 17.92 0 25.6H1715.2c-2.56-15.36 0-33.28-10.24-43.52-12.8-2.56-33.28-5.12-46.08-2.56 0 5.12 2.56 10.24 2.56 17.92 25.6 0 15.36 38.4 17.92 53.76h115.2l7.68-7.68c0-15.36-2.56-30.72 0-38.4 0-2.56 2.56-2.56 5.12-5.12 2.56-5.12 5.12-5.12 10.24-5.12z m189.44 53.76c30.72 0 58.88-2.56 89.6-2.56 20.48-15.36 5.12-64 12.8-87.04l-2.56-2.56h-89.6c0-17.92-5.12-46.08 2.56-58.88 12.8 5.12 20.48 10.24 25.6 5.12 2.56-2.56 0-10.24 2.56-17.92-5.12-10.24-58.88-15.36-69.12-12.8 0 5.12-2.56 17.92-2.56 20.48 0 2.56 5.12 0 7.68 2.56v5.12 148.48h23.04z m248.32-23.04v17.92c40.96 2.56 107.52 5.12 143.36 0v-17.92h-143.36z m-604.16-2.56H1579.52c0 10.24 0 15.36 2.56 17.92h69.12v-17.92z m-593.92 5.12c-2.56-2.56-7.68-2.56-10.24-10.24-2.56-10.24 0-25.6 0-40.96v-87.04h2.56c5.12-2.56 140.8-2.56 148.48 0v133.12h-2.56c-46.08 2.56-92.16 5.12-138.24 5.12z m967.68 0h-7.68v-15.36H2073.6c0 7.68 0 12.8-2.56 15.36h-46.08z m166.4-158.72c0 17.92 2.56 64-5.12 69.12-5.12-2.56-10.24-5.12-17.92-7.68-5.12 10.24-10.24 15.36-12.8 25.6 35.84 7.68 51.2 43.52 76.8 64 7.68-5.12 12.8-10.24 20.48-17.92-5.12-12.8-23.04-23.04-25.6-35.84v-99.84c-12.8 2.56-23.04 2.56-35.84 2.56z m-737.28 140.8h25.6v7.68h-23.04c-2.56-2.56-2.56-5.12-2.56-7.68z m-266.24-53.76h-30.72v-2.56c12.8 2.56 17.92-10.24 30.72-15.36v-12.8h-20.48v-2.56c7.68 0 17.92 2.56 20.48-2.56v-12.8c-5.12-7.68-117.76-7.68-135.68-2.56v17.92c15.36 2.56 33.28-2.56 43.52 2.56v35.84c-15.36 0-35.84-2.56-43.52 2.56v17.92c15.36 0 33.28-5.12 43.52 2.56v15.36H1052.16v20.48h133.12v-5.12c2.56-5.12 2.56-10.24-2.56-15.36-7.68-2.56-35.84 2.56-43.52-2.56v-15.36c15.36 0 28.16-2.56 43.52-2.56 5.12-10.24 5.12-17.92 5.12-23.04z m-401.92 51.2c-7.68-2.56-20.48 0-25.6-5.12 2.56-15.36-5.12-81.92 2.56-92.16 7.68-2.56 38.4-5.12 51.2 0 2.56 10.24 0 30.72 0 51.2 0 17.92 0 35.84-2.56 43.52-7.68 0-15.36 0-25.6 2.56z m74.24 0h-2.56v-48.64c0-15.36 0-28.16 2.56-46.08 15.36-2.56 38.4-2.56 53.76 0v94.72h-53.76z m704-25.6v17.92h61.44v-89.6c10.24 7.68 17.92 15.36 28.16 23.04 0-10.24 2.56-20.48 0-30.72-7.68-12.8-46.08-43.52-66.56-33.28-2.56 5.12-7.68 10.24-10.24 15.36V358.4c5.12 0 7.68 2.56 12.8 2.56v53.76c0 12.8 2.56 25.6 0 33.28-5.12 5.12-15.36 5.12-25.6 5.12z m450.56 10.24v-12.8l2.56-2.56c7.68-2.56 51.2 0 53.76 0V460.8h-2.56c-17.92 0-35.84 0-53.76 2.56z m-560.64-2.56c0-5.12 0-7.68 2.56-12.8h23.04v10.24c-10.24 0-17.92 0-25.6 2.56z m793.6-2.56h156.16v-2.56c-2.56-5.12 2.56-12.8 0-15.36-7.68-2.56-23.04 2.56-28.16 0v-48.64c0-10.24 2.56-20.48 0-30.72-10.24-25.6-61.44-20.48-89.6-17.92v17.92c17.92 0 33.28-2.56 48.64 5.12 2.56 25.6 2.56 53.76 0 76.8-25.6 5.12-64 0-89.6 0 2.56 2.56 2.56 10.24 2.56 15.36z m-591.36-35.84c0 10.24 0 17.92 5.12 20.48 51.2 0 102.4-2.56 156.16-2.56v-23.04l-40.96-40.96c17.92-5.12 30.72-10.24 53.76-10.24v-25.6c-17.92 0-38.4 2.56-56.32 7.68-10.24 2.56-20.48 12.8-33.28 10.24-20.48-5.12-64-28.16-81.92-17.92v20.48 2.56c17.92 2.56 33.28 5.12 48.64 10.24v2.56c-12.8 12.8-28.16 17.92-38.4 33.28l2.56 2.56c33.28 7.68 46.08-10.24 69.12-20.48 15.36 5.12 28.16 17.92 35.84 28.16v2.56h-120.32z m-512 5.12c-2.56-7.68-2.56-15.36 0-25.6 7.68-7.68 10.24-7.68 20.48-10.24-5.12 10.24-7.68 17.92-12.8 28.16l5.12 5.12v2.56h-12.8z m947.2-7.68h23.04v-5.12c-7.68-12.8-17.92-25.6-25.6-38.4 10.24-2.56 20.48-7.68 30.72-10.24v-25.6c-46.08 0-81.92 40.96-89.6 79.36h25.6c2.56-10.24 10.24-20.48 17.92-25.6 5.12 5.12 10.24 17.92 17.92 25.6zM1203.2 279.04c-7.68 0-10.24 0-15.36 2.56-7.68 33.28-74.24 15.36-61.44-33.28 5.12-17.92 28.16-33.28 48.64-23.04 7.68 5.12 10.24 17.92 17.92 20.48h10.24c-15.36-46.08-81.92-43.52-92.16 5.12-10.24 56.32 56.32 69.12 89.6 33.28 2.56 0 2.56-2.56 2.56-5.12zM1687.04 307.2l5.12-5.12v-7.68h-12.8v7.68 2.56s5.12 2.56 7.68 2.56z m-872.96-58.88c0-23.04-35.84-48.64-61.44-33.28 0 5.12-25.6 15.36-28.16 43.52v2.56c2.56 53.76 87.04 61.44 89.6 17.92h-12.8c-10.24 35.84-64 15.36-64-20.48 0-40.96 58.88-48.64 64-10.24h12.8z m23.04 58.88v-30.72h7.68c5.12 5.12 20.48 7.68 30.72 5.12 12.8-10.24 7.68-20.48 7.68-35.84 0-12.8 5.12-28.16 0-33.28h-10.24c0 17.92-2.56 35.84-2.56 53.76-15.36 7.68-20.48 2.56-30.72-2.56-5.12-10.24 2.56-46.08-5.12-51.2h-10.24v89.6c5.12 5.12 7.68 5.12 12.8 5.12z m64 0h7.68v-12.8h-10.24v10.24c0 2.56 0 2.56 2.56 2.56z m1008.64 0c17.92 0 38.4 0 51.2-10.24 5.12-15.36 2.56-20.48-5.12-33.28 5.12-5.12 10.24-10.24 15.36-17.92 0-7.68-2.56-12.8-5.12-20.48-5.12-2.56-7.68-7.68-15.36-7.68-17.92-5.12-38.4-2.56-56.32 2.56 0 30.72-2.56 69.12 0 89.6 2.56-2.56 10.24-2.56 15.36-2.56z m217.6 0h10.24v-48.64c2.56 0 2.56 2.56 5.12 2.56 7.68 7.68 17.92 15.36 25.6 20.48h12.8l-2.56-2.56c-7.68-2.56-15.36-10.24-20.48-17.92v-5.12c7.68-5.12 28.16-30.72 25.6-38.4-2.56 0-7.68 2.56-10.24 2.56-7.68 10.24-12.8 20.48-20.48 30.72-5.12-2.56-7.68-5.12-12.8-5.12 0-10.24-2.56-17.92-2.56-28.16-5.12 0-7.68 0-10.24 2.56-2.56 7.68-2.56 76.8 0 87.04z m-701.44-25.6v17.92c5.12 0 7.68 0 10.24-2.56 0-5.12 2.56-10.24 2.56-15.36 5.12 0 7.68 0 10.24-2.56v-5.12h-10.24c0-15.36-5.12-35.84 2.56-46.08 2.56-2.56 5.12-2.56 10.24-2.56v-7.68c-10.24-2.56-17.92-2.56-20.48 5.12-7.68 12.8-2.56 33.28-2.56 51.2-2.56 0-5.12 2.56-10.24 2.56 0 5.12-2.56 5.12 7.68 5.12z m220.16 17.92h12.8v-15.36h10.24v-7.68c-5.12 0-7.68-2.56-12.8-2.56 0-15.36-2.56-35.84 2.56-46.08h10.24v-7.68l-2.56-2.56c-10.24 0-15.36 0-17.92 5.12-7.68 12.8-2.56 40.96-2.56 53.76h-10.24v7.68h10.24v15.36z m258.56-2.56c-2.56-7.68-2.56-17.92 0-28.16 15.36 0 35.84-2.56 46.08 10.24 0 20.48-23.04 17.92-46.08 17.92z m-171.52-10.24c15.36-2.56 23.04-7.68 33.28-15.36 2.56-28.16 5.12-48.64-25.6-53.76-5.12-2.56-20.48-2.56-28.16 2.56-15.36 10.24-17.92 46.08-2.56 58.88 5.12 2.56 12.8 5.12 23.04 7.68z m-709.12 0c12.8 0 23.04-2.56 28.16-10.24 7.68-10.24 2.56-35.84 2.56-46.08 2.56 0 5.12-2.56 7.68-2.56v-5.12c-10.24-2.56-15.36 2.56-20.48 7.68-15.36-7.68-25.6-10.24-43.52-2.56-2.56 5.12-5.12 10.24-5.12 17.92 12.8 20.48 35.84 7.68 51.2 23.04 0 2.56-2.56 5.12-2.56 7.68-12.8 2.56-20.48 5.12-33.28-2.56-2.56-5.12 0-5.12-7.68-5.12H998.4l7.68 15.36c5.12-2.56 10.24 0 17.92 2.56z m261.12-5.12h10.24v-5.12c7.68 2.56 28.16 15.36 40.96 2.56 15.36-10.24 10.24-43.52 7.68-61.44H1331.2c0 12.8 2.56 58.88-12.8 53.76h-15.36c-2.56-5.12-7.68-7.68-7.68-12.8-2.56-12.8 2.56-30.72 0-40.96h-10.24c0 10.24 0 28.16-2.56 33.28 0-46.08-64-48.64-74.24-7.68-10.24 40.96 53.76 61.44 74.24 10.24h2.56V281.6z m92.16 2.56c15.36 0 35.84 0 35.84-17.92h-10.24c-5.12 10.24-20.48 10.24-30.72 7.68 0-2.56-2.56-2.56-2.56-5.12s2.56-5.12 2.56-7.68c15.36-5.12 33.28-10.24 46.08-17.92v-12.8c-7.68-23.04-56.32-20.48-58.88 5.12h10.24c5.12-10.24 10.24-10.24 17.92-15.36 10.24 2.56 17.92 2.56 20.48 15.36-15.36 10.24-30.72 10.24-46.08 17.92 0 7.68-2.56 10.24 0 17.92 2.56 7.68 7.68 10.24 15.36 12.8z m435.2 0c10.24 0 15.36-2.56 23.04-7.68 2.56-12.8 7.68-40.96 2.56-58.88h-10.24c0 17.92 2.56 46.08-7.68 53.76-5.12 5.12-12.8 2.56-20.48 0-2.56-2.56-5.12-7.68-10.24-10.24v-43.52h-5.12c-5.12-2.56-5.12 2.56-7.68 7.68V281.6h10.24c0-2.56 2.56-5.12 2.56-5.12l23.04 7.68z m-862.72 0c12.8 0 20.48-2.56 28.16-5.12 7.68-17.92 5.12-38.4 5.12-58.88H972.8c-5.12 20.48 2.56 38.4-5.12 53.76l-2.56 2.56c-7.68 0-12.8-2.56-20.48-2.56-10.24-15.36-2.56-43.52-10.24-53.76h-10.24v64h7.68c2.56-2.56 2.56-2.56 2.56-5.12 5.12 0 10.24 2.56 15.36 5.12z m540.16 0c5.12-2.56 5.12-7.68 0-12.8-7.68 2.56-12.8-2.56-17.92-5.12 0-5.12-2.56-7.68-2.56-12.8 0-12.8 2.56-28.16-2.56-35.84-2.56 0-5.12 2.56-7.68 2.56V281.6H1466.88c0-2.56 2.56-5.12 2.56-7.68 7.68 5.12 12.8 5.12 20.48 10.24z m110.08 0c17.92 0 28.16-5.12 33.28-17.92v-2.56h-10.24c-5.12 12.8-23.04 15.36-35.84 7.68-10.24-20.48-7.68-33.28 10.24-46.08 7.68 0 15.36 2.56 20.48 7.68 2.56 2.56 5.12 7.68 7.68 10.24 2.56 2.56 5.12 0 10.24 0-5.12-25.6-43.52-35.84-58.88-12.8-12.8 20.48-7.68 40.96 2.56 51.2 5.12 0 12.8 0 20.48 2.56z m396.8 0c17.92 0 28.16-2.56 38.4-7.68 0-10.24 0-35.84 2.56-43.52 2.56-7.68 5.12 0 7.68-5.12 0 0-2.56-2.56 0-5.12l-2.56-2.56c-7.68-2.56-15.36 2.56-17.92 7.68-15.36-10.24-35.84-10.24-48.64 0v12.8c12.8 20.48 33.28 10.24 51.2 20.48v7.68c-2.56 0-5.12 2.56-5.12 2.56-15.36 7.68-25.6-2.56-35.84-10.24h-5.12v2.56c2.56 5.12 2.56 7.68 7.68 10.24 2.56 5.12 5.12 7.68 7.68 10.24z m87.04 0c10.24 0 15.36-2.56 23.04-5.12 5.12-12.8 10.24-46.08 2.56-61.44H2099.2c0 20.48 2.56 40.96-7.68 53.76h-2.56c-12.8 0-17.92-2.56-25.6-7.68-2.56-12.8-2.56-30.72-2.56-46.08-2.56 0-5.12-2.56-5.12-2.56h-2.56c-5.12 15.36-2.56 40.96-2.56 64 5.12 0 10.24 2.56 10.24-2.56 5.12-2.56 12.8 0 23.04 7.68zM896 281.6c5.12 0 10.24 0 12.8-2.56v-64H896V281.6z m783.36 0h12.8v-64h-10.24-2.56V281.6z m-179.2 0h10.24c0-25.6-5.12-61.44 28.16-53.76 5.12 12.8 10.24 35.84 7.68 53.76h12.8c2.56-10.24 5.12-51.2-2.56-64h-7.68v7.68c-5.12-2.56-7.68-5.12-12.8-7.68-5.12-2.56-12.8-2.56-20.48-2.56-2.56 2.56-7.68 5.12-10.24 7.68-7.68 10.24-10.24 40.96-5.12 58.88z m225.28-5.12c-15.36-10.24-20.48-28.16-10.24-46.08 5.12-2.56 7.68-5.12 12.8-5.12 10.24 2.56 17.92 2.56 20.48 12.8 7.68 12.8 2.56 28.16-2.56 35.84-5.12 0-10.24 2.56-20.48 2.56z m-483.84-2.56c-2.56 0-5.12-2.56-7.68-2.56-15.36-10.24-12.8-30.72-2.56-46.08 15.36-5.12 20.48-5.12 33.28 5.12 2.56 15.36 2.56 23.04 0 35.84-10.24 5.12-15.36 7.68-23.04 7.68z m663.04-15.36V230.4c0-2.56 2.56-2.56 2.56-5.12 25.6 0 40.96-2.56 48.64 15.36-2.56 5.12-2.56 7.68-5.12 12.8-15.36 5.12-28.16 5.12-46.08 5.12z m-865.28-7.68c-12.8-5.12-25.6-2.56-35.84-7.68v-10.24c15.36-7.68 25.6-2.56 35.84 5.12 2.56 2.56 5.12 7.68 0 12.8z m983.04-2.56c-10.24-2.56-20.48-5.12-33.28-5.12-2.56-7.68-2.56-12.8 5.12-17.92 12.8-7.68 30.72 5.12 33.28 12.8v10.24H2022.4z"  horiz-adv-x="2560" />

    
    <glyph glyph-name="shequguanli_fuwuquyuguanli" unicode="&#59247;" d="M279.4 588.4a209.8 209.4 0 1 1 419.6 0 209.8 209.4 0 1 1-419.6 0ZM510 289.3h104.5v51.1c-40.3 13.7-82.6 21-125.2 21.5-216.3 0-391.7-175.4-391.7-391.7H611v75.9H510V289.3zM926.5 181.8v77.8h-83.7v99.7H765v-99.7h-34.1v99.7H653v-99.7H537.3v-77.8H653v-34.1H537.3v-77.8H653v-99.7h77.8v99.7h34.1v-99.7h77.8v99.7h83.7v77.8h-83.7v34.1h83.8z m-161.6-34h-34.1v34.1h34.1v-34.1z"  horiz-adv-x="1024" />

    
    <glyph glyph-name="ziyuanldpi" unicode="&#59248;" d="M960-128H64a64 64 0 0 0-64 64V832a64 64 0 0 0 64 64h640a64 64 0 0 0 64-64v-256h192a64 64 0 0 0 64-64v-576a64 64 0 0 0-64-64z m-192 128h128V448h-128z m-192 0h64V768H128v-768h64v192a64 64 0 0 0 64 64h256a64 64 0 0 0 64-64z m-256 0h128v128H320z m128 384H320a64 64 0 0 0-64 64 64 64 0 0 0 64 64h128a64 64 0 0 0 64-64 64 64 0 0 0-64-64z m0 192H320a64 64 0 0 0-64 64 64 64 0 0 0 64 64h128a64 64 0 0 0 64-64 64 64 0 0 0-64-64z"  horiz-adv-x="1024" />

    
    <glyph glyph-name="Database_maintain" unicode="&#59250;" d="M560.15872 574.08512c-99.25632 0-179.72224-87.98208-179.72224-196.5056h359.45472c0 108.52352-80.46592 196.5056-179.73248 196.5056M87.84896 174.97088H704.4096V302.78656H87.84896zM87.84896-49.27488H704.4096V78.5408H87.84896zM977.22368 514.82624c-3.49184 3.4816-8.1408 4.64896-12.8 4.64896l-100.0448-1.16736-22.10816 56.9344 72.1408 72.02816c3.4816 3.4816 4.63872 8.1408 4.63872 12.8 0 4.63872-2.32448 9.28768-4.63872 12.76928L809.70752 777.41056c-6.98368 6.9632-17.44896 6.9632-24.43264 0l-72.13056-72.0384-55.84896 23.2448 1.16736 98.75456c0 4.64896-2.32448 9.29792-4.64896 12.77952C651.48928 843.64288 645.66272 844.8 641.024 844.8l-150.0672-2.33472c-9.29792 0-17.44896-8.13056-17.44896-17.41824l-1.16736-101.08928-58.1632-23.2448-76.77952 76.6976c-6.98368 6.9632-17.44896 6.9632-24.43264 0l-107.03872-106.9056c-3.4816-3.4816-4.64896-8.1408-4.64896-12.76928 0-4.64896 2.33472-9.29792 4.64896-12.8l77.94688-77.83424-25.58976-56.9344-100.05504-1.16736c-9.29792 0-17.44896-8.13056-17.44896-17.42848l-1.16736-115.02592h34.9184l1.15712 97.59744 94.22848 1.15712c6.98368 0 12.8 4.64896 15.12448 10.46528l34.89792 77.85472a20.29568 20.29568 0 0 1-3.4816 19.75296l-74.45504 74.36288 82.59584 82.4832 73.28768-73.19552c4.64896-4.64896 12.8-6.97344 18.61632-3.4816l79.104 32.53248c6.9632 2.32448 10.46528 9.28768 10.46528 16.26112l1.16736 95.2832 115.17952 1.16736-1.16736-92.95872c0-6.9632 4.64896-13.94688 10.45504-16.27136l77.94688-32.53248c6.98368-2.31424 13.96736-1.14688 18.61632 3.4816l68.63872 68.56704 80.27136-80.1792-67.4816-67.38944c-4.63872-4.63872-6.97344-11.61216-3.4816-18.5856l30.24896-77.85472c2.33472-6.9632 9.3184-11.6224 16.2816-11.6224l94.23872 1.16736-1.16736-115.02592-94.22848-1.16736c-6.98368 0-12.8-4.63872-15.12448-10.45504l-34.89792-77.84448a20.28544 20.28544 0 0 1 3.4816-19.7632l74.45504-74.35264-95.39584-95.2832 24.44288-24.40192 107.01824 106.9056c3.49184 3.4816 4.6592 8.13056 4.6592 12.77952 0 4.64896-2.32448 9.29792-4.6592 12.77952l-77.94688 77.85472 25.6 56.9344 100.0448 1.16736c9.30816 0 17.44896 8.13056 17.44896 17.41824L983.04 502.04672c-1.16736 4.64896-2.33472 9.29792-5.81632 12.77952M560.7424 574.08512c-98.88768 0-180.31616-80.1792-180.31616-180.09088v-17.43872h34.9184v17.43872c0 80.15872 65.13664 145.22368 145.408 145.22368 80.26112 0 145.408-65.06496 145.408-145.22368v-17.43872h34.89792v17.43872c-1.14688 98.74432-81.42848 180.09088-180.30592 180.09088M624.7424 376.55552v17.42848c0 34.85696-29.09184 63.90784-64 63.90784-34.89792 0-63.96928-29.05088-63.96928-63.90784v-17.42848h34.89792v17.42848c0 16.27136 12.8 29.05088 29.0816 29.05088 16.2816 0 29.0816-12.77952 29.0816-29.05088v-17.42848h34.89792zM701.51168 182.51776c0-3.4816-2.33472-5.80608-5.82656-5.80608H95.40608c-3.4816 0-5.81632 2.32448-5.81632 5.80608V295.22944c0 3.4816 2.33472 5.80608 5.81632 5.80608h600.27904c3.49184 0 5.82656-2.32448 5.82656-5.80608v-112.71168z m-5.82656 156.8768H95.40608A44.15488 44.15488 0 0 1 51.2 295.2192v-112.71168a44.15488 44.15488 0 0 1 44.20608-44.1344h600.27904a44.16512 44.16512 0 0 1 44.21632 44.1344V295.22944a44.16512 44.16512 0 0 1-44.21632 44.15488zM138.45504 222.02368h34.89792v34.85696h-34.89792zM411.83232 222.02368H644.5056v34.85696H411.83232zM701.51168-41.728c0-3.4816-2.33472-5.81632-5.82656-5.81632H95.40608c-3.4816 0-5.81632 2.33472-5.81632 5.81632V70.97344c0 3.4816 2.33472 5.81632 5.81632 5.81632h600.27904c3.49184 0 5.82656-2.32448 5.82656-5.81632v-112.70144z m-5.82656 155.6992H95.40608A44.15488 44.15488 0 0 1 51.2 69.81632V-42.9056a44.15488 44.15488 0 0 1 44.20608-44.1344h600.27904a44.16512 44.16512 0 0 1 44.21632 44.1344V69.81632a44.16512 44.16512 0 0 1-44.21632 44.15488zM138.45504-3.3792h34.89792v34.85696h-34.89792zM411.83232-3.3792H644.5056v34.85696H411.83232z"  horiz-adv-x="1024" />

    
    <glyph glyph-name="weishengshehuifuwu" unicode="&#59251;" d="M756.084 559.114c0 5.29-2.15 20.587-9.184 35.474-13.582-25.788-54.076-91.917-135.769-146.379a155.2 155.2 0 0 1-6.726-4.739c9.37-9.953 19.621-19.081 29.839-27.232 39.542 23.452 121.84 79.843 121.84 142.876zM660.989 396.777c22.44-14.942 39.941-23.493 39.941-23.493s137.96 68.461 137.96 153.519c0 17.735-13.374 74.571-62.842 77.175 8.126-18.519 10.501-36.161 10.501-44.864-0.001-72.704-78.651-132.9-125.56-162.337zM329.531 648.678c0-86.761 95.651-159.646 153.325-195.708C531.42 480.832 653.95 560.071 653.95 650.174c0 11.352-4.644 36.121-17.438 57.83-14.663 24.879-35.237 37.785-61.167 38.395-35.638-22.465-49.778-61.806-49.778-61.806s-5.195 15.29-17.163 32.443c-0.923-0.996-1.84-2.01-2.744-3.057-14.638-16.955-21.125-34.404-21.188-34.579l-14.843-40.537-13.899 40.831c-0.05 0.142-6.384 18.202-20.573 35.738-16.828 20.799-37.091 31.925-60.28 33.127-33.198-23.36-45.346-68.446-45.346-99.881zM459.522 733.744c4.274-5.361 7.949-10.726 11.064-15.775a155.524 155.524 0 0 0 11.247 15.019 145.035 145.035 0 0 0 6.32 6.958c-15.236 13.405-35.629 23.959-62.1 23.959-0.109 0-0.215-0.005-0.323-0.005 12.37-7.435 23.722-17.524 33.792-30.156zM662.755 723.472c14.881-25.248 21.657-55.694 21.657-73.297 0-31.189-11.397-63.199-33.873-95.14-17.328-24.624-41.326-49.347-71.325-73.482-23.909-19.235-47.65-34.934-66.241-46.243 7.911-4.323 12.593-6.611 12.593-6.611s170.412 84.571 195.859 194.425c-6.414 3.342-13.947 5.352-22.781 5.352a67.69 67.69 0 0 1-3.791-0.106l-1.723 30.415a97.704 97.704 0 0 0 5.514 0.155c9.125 0 17.735-1.355 25.764-4.002-2.168 30.425-24.108 106.722-95.586 106.722-0.542 0-1.074-0.018-1.611-0.026 13.894-8.939 25.859-21.728 35.544-38.162zM178.422 214.412h-37.513c-0.845 0-1.459 0.021-1.9 0.049 1.458-0.347 4.174-1.536 4.174-5.023v-188.974h31.88a6.1 6.1 0 0 1 6.093 6.093V209.334a6.088 6.088 0 0 1-2.734 5.078zM211.25 214.476c0.238-1.681 0.369-3.396 0.369-5.142v-182.777a36.33 36.33 0 0 0-5.526-19.294h2.077c7.429 0 17.264 4.7 17.264 11.289V209.438c-0.001 5.708-7.38 5.26-14.184 5.038zM139.009 214.461c-0.984 0.234-1.385 0.086 0 0zM933.195 279.62v-95.814c0-6.931-2.458-19.594-23.712-49.419-13.342-18.722-31.378-40.339-50.789-60.869-25.372-26.834-69.881-69.693-103.562-79.456h27.816c46.737 0 176.648 145.086 176.648 175.891V298.875c0.001 5.697-10.281-3.024-26.401-19.255zM634.863 231.065c-4.446-9.321-12.422-14.667-21.885-14.667-12.534 0-75.915-9.454-122.515-16.901v-52.104h26.401v51.224s117.347 18.47 137.287 18.47c19.94 0 10.442 66.375-17.128 66.375h-4.061c3.812-9.669 6.009-20.897 6.009-31.221 0.001-8.335-1.382-15.46-4.108-21.176zM902.732 183.98v63.923c-51.358-54.276-123.093-130.973-151.46-130.973H460V225.425l12.787 2.08c11.421 1.857 106.557 17.244 135.36 19.16 1.219 6.501-0.1 20.755-6.078 30.947-2.252 3.841-4.601 5.85-5.757 5.85H393.776c-30.385 0-100.308-55.111-100.308-84.013v-176.955h448.768c12.443 0 46.793 22.016 92.807 70.355 18.245 19.167 35.331 39.444 48.11 57.099 17.734 24.496 19.456 33.247 19.579 34.032zM858.695 73.518c19.41 20.53 37.447 42.147 50.789 60.869 21.254 29.826 23.712 42.489 23.712 49.419V312.729c0 9.527-7.263 16.989-16.535 16.989-11.429 0-20.341-8.523-70.66-61.611-25.654-27.065-54.73-57.739-81.183-82.064-40.853-37.564-53.007-38.649-54.259-38.649H490.464v52.104c46.6 7.446 109.981 16.901 122.515 16.901 9.462 0 17.439 5.346 21.885 14.667 2.726 5.716 4.108 12.841 4.108 21.177 0 10.324-2.197 21.552-6.009 31.221a71.453 71.453 0 0 1-2.848 6.335c-7.961 15.56-19.966 24.129-33.803 24.129H353.063c-26.761 0-61.308-27.091-71.259-35.394-13.285-11.086-44.185-39.631-44.185-65.229v-221.272h504.617c4.055 0 8.38 0.721 12.897 2.031 33.681 9.761 78.19 52.62 103.562 79.454z m-116.459-51.024H268.082V213.303c0 5.857 10.313 22.71 33.239 41.838 22.046 18.396 43.113 28.321 51.742 28.321h243.248c1.156 0 3.505-2.009 5.757-5.85 5.978-10.192 7.297-24.446 6.078-30.947-28.802-1.917-123.939-17.303-135.36-19.16L460 225.425V116.93h250.559c16.896 0 39.289 13.963 74.879 46.688 27.223 25.033 56.681 56.111 82.671 83.531 11.347 11.971 24.201 25.532 34.623 36.01v-99.18c-0.123-0.784-1.845-9.536-19.579-34.032-12.779-17.654-29.865-37.931-48.11-57.099-46.014-48.338-80.364-70.354-92.807-70.354zM362.58 480.248c49.768-40.081 98.822-64.227 100.886-65.235l6.739-3.292 6.718 3.334c1.101 0.546 15.399 7.692 36.051 20.255 18.591 11.309 42.332 27.008 66.241 46.243 29.999 24.135 53.997 48.858 71.325 73.482 22.477 31.941 33.873 63.95 33.873 95.14 0 17.604-6.777 48.049-21.657 73.297-9.686 16.434-21.65 29.223-35.544 38.163-15.651 10.071-33.751 15.257-53.804 15.257-32.519 0-61.811-12.741-85.255-36.946a143.986 143.986 0 0 1-6.32-6.958 155.813 155.813 0 0 1-11.247-15.019c-3.114 5.049-6.789 10.414-11.064 15.775-10.07 12.632-21.422 22.721-33.792 30.157-16.71 10.044-35.282 15.237-55.092 15.237-81.991 0-111.753-78.018-111.753-130.459 0-31.498 11.222-63.617 33.354-95.464 17.089-24.59 40.755-49.139 70.341-72.967z m8.057 268.426c1.424 0 2.836-0.041 4.239-0.114 23.189-1.202 43.452-12.328 60.28-33.127 14.189-17.537 20.523-35.596 20.573-35.738l13.899-40.831 14.843 40.537c0.063 0.175 6.55 17.624 21.188 34.579 0.904 1.047 1.82 2.06 2.744 3.057 18.074 19.503 39.922 29.393 65.004 29.393 0.65 0 1.294-0.014 1.937-0.029 25.93-0.611 46.503-13.516 61.167-38.395 12.794-21.709 17.438-46.477 17.438-57.83 0-90.103-122.53-169.342-171.094-197.204a545.748 545.748 0 0 0-12.754-7.102c-33.559 17.833-180.754 101.842-180.754 202.81 0.001 34.585 16.99 99.994 81.29 99.994zM693.13 658.784l1.723-30.415a67.69 67.69 0 0 0 3.791 0.106c8.834 0 16.367-2.01 22.781-5.352 12.066-6.287 20.163-17.294 25.475-28.536 7.033-14.886 9.184-30.183 9.184-35.474 0-63.032-82.299-119.424-121.839-142.876a446.894 446.894 0 0 0-14.003-7.98c-7.971 4.287-22.219 12.35-38.459 23.371l-17.106-25.208c26.736-18.143 48.038-28.608 48.932-29.046l6.739-3.291 6.718 3.333c1.842 0.914 15.413 7.744 33.922 19.359 46.909 29.437 125.559 89.634 125.559 162.337 0 8.703-2.375 26.345-10.501 44.864a119.381 119.381 0 0 1-6.44 12.618c-11.377 19.303-26.745 32.256-45.198 38.341-8.029 2.648-16.639 4.002-25.764 4.002-1.845 0.002-3.7-0.05-5.514-0.153zM211.619 209.334c0 1.746-0.131 3.461-0.369 5.142-2.508 17.73-17.776 31.414-36.187 31.414h-73.11c-20.157 0-36.556-16.399-36.556-36.556v-182.777c0-20.157 16.399-36.556 36.556-36.556h73.11c13.078 0 24.568 6.908 31.03 17.261a36.321 36.321 0 0 1 5.526 19.294V209.334z m-30.463-182.777a6.1 6.1 0 0 0-6.093-6.093h-73.109a6.1 6.1 0 0 0-6.093 6.093V209.334a6.1 6.1 0 0 0 6.093 6.093h73.11a6.06 6.06 0 0 0 3.359-1.014 6.092 6.092 0 0 0 2.734-5.078v-182.778z"  horiz-adv-x="1024" />

    
    <glyph glyph-name="shoujidengjiruzhufuwu" unicode="&#59252;" d="M512-128C229.233778-128 0 101.233778 0 384S229.233778 896 512 896s512-229.233778 512-512-229.233778-512-512-512z m117.546667 796.344889H380.643556a53.461333 53.461333 0 0 1-53.333334-53.333333v-462.222223a53.461333 53.461333 0 0 1 53.333334-53.333333h248.888888c29.312 0 53.333333 23.992889 53.333334 53.333333v462.222223c0 29.340444-24.021333 53.333333-53.333334 53.333333z m-195.555556-26.666667h142.222222v-17.777778h-142.222222v17.777778z m71.111111-506.666666a35.555556 35.555556 0 1 0 0 71.111111 35.555556 35.555556 0 0 0 0-71.111111z m142.222222 106.666666H362.865778v355.555556h284.444444v-355.555556z m-60.259555 236.103111v-0.014222a99.512889 99.512889 0 1 1 10.638222-14.762667L507.733333 348.060444l-57.671111 64.995556 13.795556 17.379556L507.733333 394.097778l79.331556 83.669333z"  horiz-adv-x="1024" />

    
    </font>
</defs>
</svg>
